<?xml version="1.0" ?>
<!DOCTYPE svg  PUBLIC '-//W3C//DTD SVG 1.1//EN'  'http://www.w3.org/Graphics/SVG/1.1/DTD/svg11.dtd'>
<!-- Uploaded to: SVG Repo, www.svgrepo.com, Generator: SVG Repo Mixer Tools -->
<svg width="800px" height="800px" viewBox="0 0 32 32" enable-background="new 0 0 32 32" version="1.1" xml:space="preserve" xmlns="http://www.w3.org/2000/svg" xmlns:xlink="http://www.w3.org/1999/xlink">
<g id="Packaging_Delivery31"/>
<g id="Packaging_Delivery30"/>
<g id="Packaging_Delivery29"/>
<g id="Packaging_Delivery28"/>
<g id="Packaging_Delivery27"/>
<g id="Packaging_Delivery26"/>
<g id="Packaging_Delivery25">
<g>
<path d="M24,6v6c0,0.55-0.45,1-1,1h-6c-0.55,0-1-0.45-1-1V6c0-0.55,0.45-1,1-1h6C23.55,5,24,5.45,24,6z" fill="#48B1DD"/>
</g>
<g>
<path d="M27,12v7c0,0.55-0.45,1-1,1H14c-0.55,0-1-0.45-1-1v-7c0-0.55,0.45-1,1-1h12C26.55,11,27,11.45,27,12z" fill="#96CEE5"/>
</g>
<g>
<path d="M30,24c0,1.65-1.35,3-3,3s-3-1.35-3-3c0-1.65,1.35-3,3-3S30,22.35,30,24z" fill="#48B1DD"/>
</g>
<g>
<path d="M16,24c0,1.65-1.35,3-3,3s-3-1.35-3-3c0-1.65,1.35-3,3-3S16,22.35,16,24z" fill="#48B1DD"/>
</g>
<g>
<path d="M30,20H9c-0.4658,0-0.8701-0.3213-0.9746-0.7754L5.2041,7H2C1.4473,7,1,6.5527,1,6s0.4473-1,1-1h4    c0.4658,0,0.8701,0.3213,0.9746,0.7754L9.7959,18H30c0.5527,0,1,0.4473,1,1S30.5527,20,30,20z" fill="#4391B2"/>
</g>
<g>
<path d="M21,5v3c0,0.55-0.45,1-1,1s-1-0.45-1-1V5H21z" fill="#4391B2"/>
</g>
<g>
<path d="M21,11v3c0,0.55-0.45,1-1,1s-1-0.45-1-1v-3H21z" fill="#4391B2"/>
</g>
</g>
<g id="Packaging_Delivery24"/>
<g id="Packaging_Delivery23"/>
<g id="Packaging_Delivery22"/>
<g id="Packaging_Delivery21"/>
<g id="Packaging_Delivery20"/>
<g id="Packaging_Delivery19"/>
<g id="Packaging_Delivery18"/>
<g id="Packaging_Delivery17"/>
<g id="Packaging_Delivery16"/>
<g id="Packaging_Delivery15"/>
<g id="Packaging_Delivery14"/>
<g id="Packaging_Delivery13"/>
<g id="Packaging_Delivery12"/>
<g id="Packaging_Delivery11"/>
<g id="Packaging_Delivery10"/>
<g id="Packaging_Delivery09"/>
<g id="Packaging_Delivery08"/>
<g id="Packaging_Delivery07"/>
<g id="Packaging_Delivery06"/>
<g id="Packaging_Delivery05"/>
<g id="Packaging_Delivery04"/>
<g id="Packaging_Delivery03"/>
<g id="Packaging_Delivery02"/>
<g id="Packaging_Delivery01"/>
</svg>