<?xml version="1.0" encoding="iso-8859-1"?>
<!-- Generator: Adobe Illustrator 19.0.0, SVG Export Plug-In . SVG Version: 6.00 Build 0)  -->
<svg version="1.1" id="Layer_1" xmlns="http://www.w3.org/2000/svg" xmlns:xlink="http://www.w3.org/1999/xlink" x="0px" y="0px"
	 viewBox="0 0 512 512" style="enable-background:new 0 0 512 512;" xml:space="preserve">
<g>
	<rect x="93.867" y="290.133" style="fill:#909296;" width="51.2" height="25.6"/>
	<rect x="366.933" y="290.133" style="fill:#909296;" width="51.2" height="25.6"/>
</g>
<path style="fill:#BDBDC0;" d="M452.267,298.667H59.733c-4.713,0-8.533-3.821-8.533-8.533V8.533C51.2,3.821,55.021,0,59.733,0
	h392.533c4.713,0,8.533,3.821,8.533,8.533v281.6C460.8,294.846,456.979,298.667,452.267,298.667z"/>
<path style="fill:#A7A7AB;" d="M68.267,290.133V8.533C68.267,3.821,72.087,0,76.8,0H59.733C55.021,0,51.2,3.821,51.2,8.533v281.6
	c0,4.713,3.821,8.533,8.533,8.533H76.8C72.087,298.667,68.267,294.846,68.267,290.133z"/>
<path style="fill:#A6DE64;" d="M409.6,264.533H102.4c-4.713,0-8.533-3.821-8.533-8.533V42.667c0-4.713,3.821-8.533,8.533-8.533
	h307.2c4.713,0,8.533,3.821,8.533,8.533V256C418.133,260.713,414.313,264.533,409.6,264.533z"/>
<g>
	<path style="fill:#7DBB34;" d="M102.4,34.133c-4.713,0-8.533,3.821-8.533,8.533v201.955L304.355,34.133H102.4z"/>
	<path style="fill:#7DBB34;" d="M415.262,36.294l-228.24,228.239h65.422l165.69-165.689V42.667
		C418.133,40.129,417.02,37.857,415.262,36.294z"/>
	<path style="fill:#7DBB34;" d="M295.111,264.533H409.6c4.713,0,8.533-3.821,8.533-8.533V141.511L295.111,264.533z"/>
</g>
<path style="fill:#7A7C82;" d="M409.6,34.133h-59.378v230.4H409.6c4.713,0,8.533-3.821,8.533-8.533V42.667
	C418.133,37.954,414.313,34.133,409.6,34.133z"/>
<path style="fill:#64666D;" d="M409.6,34.133H102.4c-4.713,0-8.533,3.821-8.533,8.533V256c0,4.713,3.821,8.533,8.533,8.533h307.2
	c4.713,0,8.533-3.821,8.533-8.533V42.667C418.133,37.954,414.313,34.133,409.6,34.133z M110.933,51.2h230.4v196.267h-230.4V51.2z
	 M401.067,247.467H358.4V51.2h42.667V247.467z"/>
<g>
	<circle style="fill:#383A43;" cx="384" cy="230.4" r="8.533"/>
	<circle style="fill:#383A43;" cx="384" cy="204.8" r="8.533"/>
	<path style="fill:#383A43;" d="M384,179.2c-4.713,0-8.533-3.821-8.533-8.533V153.6c0-4.713,3.821-8.533,8.533-8.533
		c4.713,0,8.533,3.821,8.533,8.533v17.067C392.533,175.379,388.713,179.2,384,179.2z"/>
	<path style="fill:#383A43;" d="M384,136.533c-4.713,0-8.533-3.821-8.533-8.533v-17.067c0-4.713,3.821-8.533,8.533-8.533
		c4.713,0,8.533,3.821,8.533,8.533V128C392.533,132.713,388.713,136.533,384,136.533z"/>
	<path style="fill:#383A43;" d="M384,93.867c-4.713,0-8.533-3.821-8.533-8.533V68.267c0-4.713,3.821-8.533,8.533-8.533
		c4.713,0,8.533,3.821,8.533,8.533v17.067C392.533,90.046,388.713,93.867,384,93.867z"/>
</g>
<path style="fill:#BDBDC0;" d="M503.467,512H8.533C3.821,512,0,508.179,0,503.467v-179.2c0-4.713,3.821-8.533,8.533-8.533h494.933
	c4.713,0,8.533,3.821,8.533,8.533v179.2C512,508.179,508.179,512,503.467,512z"/>
<path style="fill:#A7A7AB;" d="M21.333,494.933c-2.356,0-4.267-1.91-4.267-4.267V315.733H8.533c-4.713,0-8.533,3.821-8.533,8.533
	v179.2C0,508.179,3.821,512,8.533,512h494.933c4.713,0,8.533-3.821,8.533-8.533v-8.533H21.333z"/>
<path style="fill:#4E5058;" d="M460.8,477.867H187.733c-4.713,0-8.533-3.821-8.533-8.533v-102.4c0-4.713,3.821-8.533,8.533-8.533
	H460.8c4.713,0,8.533,3.821,8.533,8.533v102.4C469.333,474.046,465.513,477.867,460.8,477.867z"/>
<path style="fill:#383A43;" d="M196.267,469.333v-102.4c0-4.713,3.821-8.533,8.533-8.533h-17.067c-4.713,0-8.533,3.821-8.533,8.533
	v102.4c0,4.713,3.821,8.533,8.533,8.533H204.8C200.087,477.867,196.267,474.046,196.267,469.333z"/>
<path style="fill:#7A7C82;" d="M307.2,452.267H256c-4.713,0-8.533-3.821-8.533-8.533V409.6h68.267v34.133
	C315.733,448.446,311.913,452.267,307.2,452.267z"/>
<g>
	<path style="fill:#383A43;" d="M349.867,418.133H213.333c-4.713,0-8.533-3.821-8.533-8.533c0-4.713,3.821-8.533,8.533-8.533
		h136.533c4.713,0,8.533,3.821,8.533,8.533C358.4,414.313,354.579,418.133,349.867,418.133z"/>
	<path style="fill:#383A43;" d="M435.2,418.133H384c-4.713,0-8.533-3.821-8.533-8.533c0-4.713,3.821-8.533,8.533-8.533h51.2
		c4.713,0,8.533,3.821,8.533,8.533C443.733,414.313,439.913,418.133,435.2,418.133z"/>
</g>
<g>
	<path style="fill:#64666D;" d="M153.6,477.867c-4.713,0-8.533-3.821-8.533-8.533v-102.4c0-4.713,3.821-8.533,8.533-8.533
		c4.713,0,8.533,3.821,8.533,8.533v102.4C162.133,474.046,158.313,477.867,153.6,477.867z"/>
	<path style="fill:#64666D;" d="M119.467,477.867c-4.713,0-8.533-3.821-8.533-8.533v-102.4c0-4.713,3.821-8.533,8.533-8.533
		s8.533,3.821,8.533,8.533v102.4C128,474.046,124.179,477.867,119.467,477.867z"/>
	<path style="fill:#64666D;" d="M85.333,477.867c-4.713,0-8.533-3.821-8.533-8.533v-102.4c0-4.713,3.821-8.533,8.533-8.533
		s8.533,3.821,8.533,8.533v102.4C93.867,474.046,90.046,477.867,85.333,477.867z"/>
	<path style="fill:#64666D;" d="M51.2,477.867c-4.713,0-8.533-3.821-8.533-8.533v-102.4c0-4.713,3.821-8.533,8.533-8.533
		s8.533,3.821,8.533,8.533v102.4C59.733,474.046,55.913,477.867,51.2,477.867z"/>
</g>
<g>
</g>
<g>
</g>
<g>
</g>
<g>
</g>
<g>
</g>
<g>
</g>
<g>
</g>
<g>
</g>
<g>
</g>
<g>
</g>
<g>
</g>
<g>
</g>
<g>
</g>
<g>
</g>
<g>
</g>
</svg>
