<?xml version="1.0" encoding="iso-8859-1"?>
<!-- Generator: Adobe Illustrator 19.0.0, SVG Export Plug-In . SVG Version: 6.00 Build 0)  -->
<svg version="1.1" id="Layer_1" xmlns="http://www.w3.org/2000/svg" xmlns:xlink="http://www.w3.org/1999/xlink" x="0px" y="0px"
	 viewBox="0 0 512 512" style="enable-background:new 0 0 512 512;" xml:space="preserve">
<rect x="194.873" y="7.837" style="fill:#79CAE8;" width="122.253" height="130.612"/>
<path style="fill:#4B92B9;" d="M323.918,504.163H188.082c-11.542,0-20.898-9.356-20.898-20.898V138.449h177.633v344.816
	C344.816,494.807,335.46,504.163,323.918,504.163z"/>
<path style="fill:#CAF9F4;" d="M194.873,138.449v189.874c0,33.634,27.367,60.902,61.127,60.902l0,0
	c33.76,0,61.127-27.268,61.127-60.902V138.449H194.873z"/>
<rect x="212.898" y="41.796" width="20.898" height="20.898"/>
<rect x="276.637" y="41.796" width="20.898" height="20.898"/>
<path style="fill:#4B92B9;" d="M256,338.111L256,338.111c-15.545,0-28.146-12.601-28.146-28.146v-92.256h56.292v92.256
	C284.146,325.51,271.545,338.111,256,338.111z"/>
<circle style="fill:#FFFFFF;" cx="256" cy="217.704" r="28.146"/>
<path style="fill:#CAF9F4;" d="M296.229,478.041h-80.457c-6.636,0-12.016-5.38-12.016-12.016l0,0c0-6.636,5.38-12.016,12.016-12.016
	h80.457c6.636,0,12.016,5.38,12.016,12.016l0,0C308.245,472.661,302.865,478.041,296.229,478.041z"/>
<polygon points="202.71,15.673 248.163,15.673 248.163,117.551 263.837,117.551 263.837,15.673 309.29,15.673 309.29,117.551 
	324.963,117.551 324.963,0 187.037,0 187.037,117.551 202.71,117.551 "/>
<path d="M159.347,130.612v352.653c0,15.844,12.89,28.735,28.735,28.735h135.837c15.845,0,28.735-12.891,28.735-28.735V130.612
	H159.347z M202.71,146.286h106.58v182.036c0,29.261-23.905,53.066-53.29,53.066s-53.29-23.805-53.29-53.066V146.286z
	 M336.98,483.265c0,7.202-5.859,13.061-13.061,13.061H188.082c-7.202,0-13.061-5.859-13.061-13.061v-336.98h12.016v182.036
	c0,37.903,30.936,68.74,68.963,68.74s68.963-30.837,68.963-68.74V146.286h12.016V483.265z"/>
<path d="M256,345.948c19.841,0,35.982-16.142,35.982-35.982v-92.257c0-19.841-16.142-35.982-35.982-35.982
	s-35.982,16.142-35.982,35.982v92.257C220.018,329.806,236.159,345.948,256,345.948z M256,330.274
	c-11.198,0-20.309-9.11-20.309-20.309v-62.574c5.785,3.97,12.779,6.299,20.309,6.299c7.53,0,14.525-2.329,20.309-6.299v62.574
	C276.309,321.164,267.198,330.274,256,330.274z M256,197.399c11.198,0,20.309,9.11,20.309,20.309s-9.11,20.31-20.309,20.31
	s-20.309-9.11-20.309-20.309S244.802,197.399,256,197.399z"/>
<path d="M296.229,446.171h-80.457c-10.947,0-19.853,8.906-19.853,19.853s8.906,19.853,19.853,19.853h80.457
	c10.947,0,19.853-8.906,19.853-19.853S307.176,446.171,296.229,446.171z M296.229,470.204h-80.457c-2.305,0-4.18-1.875-4.18-4.18
	c0-2.305,1.875-4.18,4.18-4.18h80.457c2.305,0,4.18,1.875,4.18,4.18C300.408,468.329,298.534,470.204,296.229,470.204z"/>
<g>
</g>
<g>
</g>
<g>
</g>
<g>
</g>
<g>
</g>
<g>
</g>
<g>
</g>
<g>
</g>
<g>
</g>
<g>
</g>
<g>
</g>
<g>
</g>
<g>
</g>
<g>
</g>
<g>
</g>
</svg>
