<?xml version="1.0" encoding="utf-8"?>
<!-- Generator: Adobe Illustrator 16.0.0, SVG Export Plug-In . SVG Version: 6.00 Build 0)  -->
<!DOCTYPE svg PUBLIC "-//W3C//DTD SVG 1.1//EN" "http://www.w3.org/Graphics/SVG/1.1/DTD/svg11.dtd">
<svg xmlns="http://www.w3.org/2000/svg" xmlns:xlink="http://www.w3.org/1999/xlink" version="1.1" id="Layer_1" x="0px" y="0px" width="512" height="512" viewBox="0 0 512 512" enable-background="new 0 0 512 512" xml:space="preserve">
<g id="power_supply">
	<g>
		<path fill="#CCD1D9" d="M485.328,490.656h-42.656c-5.891,0-10.672,4.781-10.672,10.688c0,5.875,4.781,10.656,10.672,10.656h42.656    c5.891,0,10.672-4.781,10.672-10.656C496,495.438,491.219,490.656,485.328,490.656z"/>
		<path fill="#CCD1D9" d="M400,490.656h-42.672c-5.891,0-10.656,4.781-10.656,10.688c0,5.875,4.766,10.656,10.656,10.656H400    c5.891,0,10.672-4.781,10.672-10.656C410.672,495.438,405.891,490.656,400,490.656z"/>
		<path fill="#CCD1D9" d="M314.672,490.656c-5.891,0-10.672,4.781-10.672,10.688c0,5.875,4.781,10.656,10.672,10.656    s10.656-4.781,10.656-10.656C325.328,495.438,320.562,490.656,314.672,490.656z"/>
		<path fill="#CCD1D9" d="M272,490.656c-5.891,0-10.672,4.781-10.672,10.688c0,5.875,4.781,10.656,10.672,10.656    s10.672-4.781,10.672-10.656C282.672,495.438,277.891,490.656,272,490.656z"/>
	</g>
	<path fill="#434A54" d="M133.328,0C74.422,0,26.672,47.758,26.672,106.664v224.211H80V106.664   c0-29.453,23.875-53.328,53.328-53.328s53.344,23.875,53.344,53.328v64.445H240v-64.445C240,47.758,192.25,0,133.328,0z"/>
	<path fill="#434A54" d="M80,362.656C80,356.781,84.781,352,90.672,352s10.656,4.781,10.656,10.656   c0,5.906-4.766,10.688-10.656,10.688S80,368.562,80,362.656z"/>
	<path fill="#434A54" d="M42.672,362.656c0-5.875,4.766-10.656,10.656-10.656S64,356.781,64,362.656   c0,5.906-4.781,10.688-10.672,10.688S42.672,368.562,42.672,362.656z"/>
	<path fill="#434A54" d="M5.328,362.656C5.328,356.781,10.109,352,16,352s10.672,4.781,10.672,10.656   c0,5.906-4.781,10.688-10.672,10.688S5.328,368.562,5.328,362.656z"/>
	<g>
		<rect x="122.672" y="117.336" fill="#4FC2E9" width="384" height="384.008"/>
	</g>
	<g>
		<rect x="5.328" y="298.656" fill="#AAB2BC" width="96" height="64"/>
	</g>
	<path fill="#CCD1D9" d="M314.672,448C238.203,448,176,385.797,176,309.344c0-76.469,62.203-138.68,138.672-138.68   c76.453,0,138.656,62.211,138.656,138.68C453.328,385.797,391.125,448,314.672,448z"/>
	<path fill="#E6E9ED" d="M314.672,160c-82.484,0-149.344,66.859-149.344,149.344c0,82.469,66.859,149.312,149.344,149.312   c82.469,0,149.328-66.844,149.328-149.312C464,226.859,397.141,160,314.672,160z M325.328,283.578v-15.562   c3.906,1.008,7.609,2.57,11,4.578L325.328,283.578z M304,283.594l-10.984-11c3.391-2.008,7.078-3.57,10.984-4.578V283.594z    M288.922,298.656h-15.578c1.016-3.906,2.578-7.594,4.578-10.969L288.922,298.656z M288.922,320l-11,11   c-2-3.406-3.562-7.094-4.578-11H288.922z M304,335.094v15.562c-3.906-1.016-7.594-2.578-10.984-4.594L304,335.094z    M325.328,335.094l11,10.969c-3.391,2.016-7.094,3.578-11,4.594V335.094z M340.422,320h15.562c-1.016,3.906-2.562,7.594-4.578,11   L340.422,320z M340.422,298.656l10.984-10.969c2.016,3.375,3.562,7.062,4.578,10.969H340.422z M351.75,257.164   c-7.719-5.492-16.688-9.312-26.422-10.945v-21.562c15.25,1.891,29.562,7.82,41.672,17.258L351.75,257.164z M304,246.219   c-9.719,1.633-18.703,5.453-26.422,10.945l-15.25-15.25c12.125-9.438,26.438-15.367,41.672-17.258V246.219z M262.5,272.25   c-5.484,7.719-9.312,16.688-10.938,26.406h-21.578c1.891-15.234,7.828-29.539,17.266-41.656L262.5,272.25z M251.562,320   c1.625,9.719,5.453,18.703,10.938,26.406l-15.25,15.25c-9.438-12.094-15.375-26.406-17.266-41.656H251.562z M277.578,361.5   c7.719,5.5,16.703,9.312,26.422,10.938V394c-15.234-1.875-29.547-7.812-41.672-17.25L277.578,361.5z M325.328,372.438   c9.734-1.625,18.703-5.438,26.422-10.938L367,376.75c-12.109,9.438-26.422,15.375-41.672,17.25V372.438z M366.828,346.406   c5.5-7.703,9.312-16.688,10.953-26.406h21.562c-1.891,15.25-7.812,29.562-17.266,41.656L366.828,346.406z M377.781,298.656   c-1.641-9.719-5.453-18.688-10.953-26.406l15.25-15.25c9.453,12.117,15.375,26.422,17.266,41.656H377.781z M382.172,226.742   c-15.812-12.93-35.391-21.414-56.844-23.547v-21.422c26.641,2.188,51.609,12.531,71.984,29.82L382.172,226.742z M304,203.195   c-21.453,2.133-41.031,10.617-56.844,23.547l-15.141-15.148c20.375-17.289,45.344-27.633,71.984-29.82V203.195z M232.078,241.828   c-12.938,15.805-21.422,35.391-23.547,56.828h-21.422c2.188-26.625,12.531-51.594,29.812-71.977L232.078,241.828z M208.531,320   c2.125,21.453,10.609,41.031,23.547,56.844l-15.156,15.141c-17.281-20.375-27.625-45.344-29.812-71.984H208.531z M247.156,391.922   c15.812,12.922,35.391,21.422,56.844,23.547v21.422c-26.641-2.188-51.609-12.531-71.984-29.828L247.156,391.922z M325.328,415.469   c21.453-2.125,41.031-10.625,56.844-23.547l15.141,15.141c-20.375,17.297-45.344,27.641-71.984,29.828V415.469z M397.25,376.844   c12.938-15.812,21.422-35.391,23.547-56.844h21.422c-2.188,26.641-12.516,51.609-29.812,71.984L397.25,376.844z M420.797,298.656   c-2.125-21.438-10.609-41.023-23.547-56.828l15.156-15.148c17.297,20.383,27.625,45.352,29.812,71.977H420.797z"/>
	<path fill="#434A54" d="M464,170.664c0,5.891-4.781,10.672-10.672,10.672s-10.656-4.781-10.656-10.672S447.438,160,453.328,160   S464,164.773,464,170.664z"/>
	<path fill="#434A54" d="M464,448c0,5.891-4.781,10.656-10.672,10.656s-10.656-4.766-10.656-10.656s4.766-10.656,10.656-10.656   S464,442.109,464,448z"/>
	<path fill="#434A54" d="M186.672,170.664c0,5.891-4.781,10.672-10.672,10.672s-10.672-4.781-10.672-10.672S170.109,160,176,160   S186.672,164.773,186.672,170.664z"/>
	<path fill="#434A54" d="M186.672,448c0,5.891-4.781,10.656-10.672,10.656s-10.672-4.766-10.672-10.656s4.781-10.656,10.672-10.656   S186.672,442.109,186.672,448z"/>
	<path fill="#3BAFDA" d="M250.672,117.336L250.672,117.336c0-5.891-4.781-10.672-10.672-10.672l0,0h-53.328   c-5.891,0-10.672,4.781-10.672,10.672l0,0H250.672z"/>
</g>
</svg>
