<?xml version="1.0" ?><!-- Uploaded to: SVG Repo, www.svgrepo.com, Generator: SVG Repo Mixer Tools -->
<svg width="800px" height="800px" viewBox="0 0 64 64" id="calculator" xmlns="http://www.w3.org/2000/svg"><defs><style>.cls-1{fill:#d8d8fc;}.cls-2{fill:#f03800;}.cls-3{fill:#f2f2fc;}.cls-4{fill:#4bb9ec;}.cls-5{fill:#fdbf00;}</style></defs><title/><path class="cls-1" d="M55,17H37V34.992H55ZM45.2,34.046a6.784,6.784,0,1,1,0-13.568,1,1,0,0,1,1,1v4.784h4.784a1,1,0,0,1,1,1A6.787,6.787,0,0,1,45.2,34.046Zm8.676-8.519H48.1a1,1,0,0,1-1-1V18.743a1,1,0,0,1,1-1,6.787,6.787,0,0,1,6.784,6.784A1,1,0,0,1,53.88,25.527Z"/><path class="cls-1" d="M33,53a1,1,0,0,1-1,1H19.015v5H59V13.008H33Zm2-37a1,1,0,0,1,1-1H56a1,1,0,0,1,1,1V35.992a1,1,0,0,1-1,1H36a1,1,0,0,1-1-1Zm0,24a1,1,0,0,1,1-1H56a1,1,0,0,1,1,1v4a1,1,0,0,1-1,1H36a1,1,0,0,1-1-1Zm1,7.008H56a1,1,0,0,1,0,2H36a1,1,0,0,1,0-2Zm0,4H56a1,1,0,0,1,0,2H36a1,1,0,0,1,0-2Zm0,4H56a1,1,0,0,1,0,2H36a1,1,0,0,1,0-2Z"/><path d="M36,36.992H56a1,1,0,0,0,1-1V16a1,1,0,0,0-1-1H36a1,1,0,0,0-1,1V35.992A1,1,0,0,0,36,36.992ZM37,17H55V34.992H37Z"/><rect class="cls-2" height="2" width="18" x="37" y="41"/><path d="M36,45H56a1,1,0,0,0,1-1V40a1,1,0,0,0-1-1H36a1,1,0,0,0-1,1v4A1,1,0,0,0,36,45Zm1-4H55v2H37Z"/><path d="M36,49.008H56a1,1,0,0,0,0-2H36a1,1,0,0,0,0,2Z"/><path d="M36,53.008H56a1,1,0,0,0,0-2H36a1,1,0,0,0,0,2Z"/><path d="M36,57.008H56a1,1,0,0,0,0-2H36a1,1,0,0,0,0,2Z"/><path class="cls-3" d="M31,52V5H5V52Zm-1.995-3.984a1,1,0,0,1-1,1h-4a1,1,0,0,1-1-1v-12a1,1,0,0,1,1-1h4a1,1,0,0,1,1,1Zm-12.99-13h4a1,1,0,0,1,1,1v4a1,1,0,0,1-1,1h-4a1,1,0,0,1-1-1v-4A1,1,0,0,1,16.015,35.016Zm-1-3.008v-4a1,1,0,0,1,1-1h4a1,1,0,0,1,1,1v4a1,1,0,0,1-1,1h-4A1,1,0,0,1,15.015,32.008Zm13.99,0a1,1,0,0,1-1,1h-4a1,1,0,0,1-1-1v-4a1,1,0,0,1,1-1h4a1,1,0,0,1,1,1ZM28.99,24a1,1,0,0,1-1,1h-4a1,1,0,0,1-1-1V20a1,1,0,0,1,1-1h4a1,1,0,0,1,1,1ZM7,8A1,1,0,0,1,8,7H28a1,1,0,0,1,1,1v8a1,1,0,0,1-1,1H8a1,1,0,0,1-1-1ZM7,20a1,1,0,0,1,1-1h4a1,1,0,0,1,1,1v4a1,1,0,0,1-1,1H8a1,1,0,0,1-1-1Zm6.015,28.008a1,1,0,0,1-1,1h-4a1,1,0,0,1-1-1v-4a1,1,0,0,1,1-1h4a1,1,0,0,1,1,1Zm0-7.992a1,1,0,0,1-1,1h-4a1,1,0,0,1-1-1v-4a1,1,0,0,1,1-1h4a1,1,0,0,1,1,1Zm0-8.008a1,1,0,0,1-1,1h-4a1,1,0,0,1-1-1v-4a1,1,0,0,1,1-1h4a1,1,0,0,1,1,1ZM15,20a1,1,0,0,1,1-1h4a1,1,0,0,1,1,1v4a1,1,0,0,1-1,1H16a1,1,0,0,1-1-1Zm.015,28.008v-4a1,1,0,0,1,1-1h4a1,1,0,0,1,1,1v4a1,1,0,0,1-1,1h-4A1,1,0,0,1,15.015,48.008Z"/><path d="M60,11.008H33V4a1,1,0,0,0-1-1H4A1,1,0,0,0,3,4V53a1,1,0,0,0,1,1H17.015v6a1,1,0,0,0,1,1H60a1,1,0,0,0,1-1V12.008A1,1,0,0,0,60,11.008ZM5,5H31V52H5ZM59,59H19.015V54H32a1,1,0,0,0,1-1V13.008H59Z"/><rect class="cls-4" height="6" width="18" x="9" y="9"/><path d="M8,17H28a1,1,0,0,0,1-1V8a1,1,0,0,0-1-1H8A1,1,0,0,0,7,8v8A1,1,0,0,0,8,17ZM9,9H27v6H9Z"/><rect class="cls-5" height="2" width="2" x="9" y="21"/><path d="M8,25h4a1,1,0,0,0,1-1V20a1,1,0,0,0-1-1H8a1,1,0,0,0-1,1v4A1,1,0,0,0,8,25Zm1-4h2v2H9Z"/><rect class="cls-5" height="2" width="2" x="9.015" y="29.008"/><path d="M12.015,27.008h-4a1,1,0,0,0-1,1v4a1,1,0,0,0,1,1h4a1,1,0,0,0,1-1v-4A1,1,0,0,0,12.015,27.008Zm-1,4h-2v-2h2Z"/><rect class="cls-5" height="2" width="2" x="9.015" y="37.016"/><path d="M12.015,35.016h-4a1,1,0,0,0-1,1v4a1,1,0,0,0,1,1h4a1,1,0,0,0,1-1v-4A1,1,0,0,0,12.015,35.016Zm-1,4h-2v-2h2Z"/><rect class="cls-5" height="2" width="2" x="9.015" y="45.008"/><path d="M12.015,43.008h-4a1,1,0,0,0-1,1v4a1,1,0,0,0,1,1h4a1,1,0,0,0,1-1v-4A1,1,0,0,0,12.015,43.008Zm-1,4h-2v-2h2Z"/><rect class="cls-5" height="2" width="2" x="17" y="21"/><path d="M16,25h4a1,1,0,0,0,1-1V20a1,1,0,0,0-1-1H16a1,1,0,0,0-1,1v4A1,1,0,0,0,16,25Zm1-4h2v2H17Z"/><rect class="cls-5" height="2" width="2" x="17.015" y="29.008"/><path d="M16.015,33.008h4a1,1,0,0,0,1-1v-4a1,1,0,0,0-1-1h-4a1,1,0,0,0-1,1v4A1,1,0,0,0,16.015,33.008Zm1-4h2v2h-2Z"/><rect class="cls-5" height="2" width="2" x="17.015" y="37.016"/><path d="M15.015,40.016a1,1,0,0,0,1,1h4a1,1,0,0,0,1-1v-4a1,1,0,0,0-1-1h-4a1,1,0,0,0-1,1Zm2-3h2v2h-2Z"/><rect class="cls-5" height="2" width="2" x="17.015" y="45.008"/><path d="M20.015,49.008a1,1,0,0,0,1-1v-4a1,1,0,0,0-1-1h-4a1,1,0,0,0-1,1v4a1,1,0,0,0,1,1Zm-3-4h2v2h-2Z"/><rect class="cls-5" height="2" width="2" x="24.99" y="21"/><path d="M27.99,19h-4a1,1,0,0,0-1,1v4a1,1,0,0,0,1,1h4a1,1,0,0,0,1-1V20A1,1,0,0,0,27.99,19Zm-1,4h-2V21h2Z"/><rect class="cls-5" height="2" width="2" x="25.005" y="29.008"/><path d="M28.005,27.008h-4a1,1,0,0,0-1,1v4a1,1,0,0,0,1,1h4a1,1,0,0,0,1-1v-4A1,1,0,0,0,28.005,27.008Zm-1,4h-2v-2h2Z"/><rect class="cls-2" height="10" width="2" x="25.005" y="37.016"/><path d="M28.005,35.016h-4a1,1,0,0,0-1,1v12a1,1,0,0,0,1,1h4a1,1,0,0,0,1-1v-12A1,1,0,0,0,28.005,35.016Zm-1,12h-2v-10h2Z"/><path class="cls-5" d="M45.2,28.262a1,1,0,0,1-1-1V22.583a4.784,4.784,0,1,0,5.679,5.679Z"/><path d="M50.988,26.262H46.2V21.479a1,1,0,0,0-1-1,6.784,6.784,0,1,0,6.784,6.784A1,1,0,0,0,50.988,26.262ZM45.2,32.046a4.784,4.784,0,0,1-1-9.463v4.679a1,1,0,0,0,1,1h4.679A4.788,4.788,0,0,1,45.2,32.046Z"/><path class="cls-4" d="M49.1,19.848v3.679h3.679A4.8,4.8,0,0,0,49.1,19.848Z"/><path d="M48.1,17.743a1,1,0,0,0-1,1v5.784a1,1,0,0,0,1,1H53.88a1,1,0,0,0,1-1A6.787,6.787,0,0,0,48.1,17.743Zm1,5.784V19.848a4.8,4.8,0,0,1,3.679,3.679Z"/></svg>