<?xml version="1.0" encoding="iso-8859-1"?>
<!-- Generator: Adobe Illustrator 19.0.0, SVG Export Plug-In . SVG Version: 6.00 Build 0)  -->
<svg version="1.1" id="Layer_1" xmlns="http://www.w3.org/2000/svg" xmlns:xlink="http://www.w3.org/1999/xlink" x="0px" y="0px"
	 viewBox="0 0 511.999 511.999" style="enable-background:new 0 0 511.999 511.999;" xml:space="preserve">
<polyline style="fill:#4BAF78;" points="264.909,319.964 264.909,224.154 400.293,224.154 400.293,319.964 "/>
<polyline style="fill:#1E834E;" points="264.909,319.964 264.909,224.154 336.767,224.154 336.767,319.964 "/>
<rect x="264.01" y="263.957" style="fill:#FCBB3B;" width="48.041" height="32.025"/>
<path style="fill:#75C0C7;" d="M492.18,159.873h-32.025c-6.633,0-12.01-5.377-12.01-12.01l0,0c0-6.633,5.377-12.01,12.01-12.01
	h32.025c6.633,0,12.01,5.377,12.01,12.01l0,0C504.189,154.497,498.813,159.873,492.18,159.873z"/>
<polyline style="fill:#4BAF78;" points="79.536,167.917 79.536,79.397 264.909,79.397 264.909,167.917 "/>
<rect x="151.922" y="79.813" style="fill:#FFFFFF;" width="40.03" height="24.015"/>
<polyline style="fill:#1E834E;" points="79.536,167.917 79.536,79.397 128.483,79.397 128.483,167.917 "/>
<polygon style="fill:#FCBB3B;" points="39.962,319.964 39.962,167.917 280.53,167.917 280.53,224.154 264.909,224.154 
	264.909,264.769 168.057,264.769 168.057,319.964 "/>
<rect x="39.834" y="167.876" style="fill:#BD8C2C;" width="48.041" height="152.12"/>
<rect x="39.834" y="255.948" style="fill:#FFFFFF;" width="56.043" height="40.03"/>
<g>
	<circle style="fill:#E0DCCD;" cx="71.858" cy="408.058" r="24.015"/>
	<rect x="167.929" y="263.957" style="fill:#E0DCCD;" width="96.071" height="56.043"/>
</g>
<g>
	<rect x="167.929" y="263.957" style="fill:#A8A59A;" width="24.015" height="56.043"/>
	<path style="fill:#A8A59A;" d="M71.859,408.062c0-8.868,4.86-16.526,12.01-20.687c-3.545-2.063-7.612-3.331-12.01-3.331
		c-13.265,0-24.018,10.754-24.018,24.018s10.754,24.018,24.018,24.018c4.398,0,8.464-1.268,12.01-3.331
		C76.719,424.589,71.859,416.93,71.859,408.062z"/>
</g>
<circle style="fill:#E0DCCD;" cx="448.143" cy="408.058" r="24.015"/>
<path style="fill:#A8A59A;" d="M448.146,408.062c0-8.868,4.86-16.526,12.01-20.687c-3.545-2.063-7.612-3.331-12.01-3.331
	c-13.265,0-24.018,10.754-24.018,24.018s10.754,24.018,24.018,24.018c4.398,0,8.464-1.268,12.01-3.331
	C453.007,424.589,448.146,416.93,448.146,408.062z"/>
<path style="fill:#75C0C7;" d="M488.177,352.019H23.822c-8.844,0-16.012-7.169-16.012-16.012l0,0
	c0-8.844,7.169-16.012,16.012-16.012h464.354c8.844,0,16.012,7.169,16.012,16.012l0,0
	C504.189,344.851,497.02,352.019,488.177,352.019z"/>
<path style="fill:#589095;" d="M135.908,352.019H23.822c-8.844,0-16.012-7.169-16.012-16.012l0,0
	c0-8.844,7.169-16.012,16.012-16.012h112.086c8.844,0,16.012,7.169,16.012,16.012l0,0
	C151.92,344.851,144.752,352.019,135.908,352.019z"/>
<path d="M71.859,376.233c-5.944,0-11.51,1.642-16.275,4.49V367.87H31.631v15.621h8.331v24.994h0.079
	c0.228,17.356,14.409,31.407,31.818,31.407c17.551,0,31.829-14.278,31.829-31.829S89.41,376.233,71.859,376.233z M71.859,424.27
	c-8.937,0-16.208-7.27-16.208-16.208c0-8.937,7.27-16.208,16.208-16.208s16.208,7.27,16.208,16.208
	C88.067,417,80.796,424.27,71.859,424.27z"/>
<rect x="63.912" y="400.154" width="15.621" height="15.621"/>
<path d="M448.146,376.233c-6.083,0-11.772,1.718-16.611,4.691V367.87h-23.953v15.621h8.331l0.403,24.572
	c0,17.551,14.279,31.829,31.829,31.829s31.829-14.278,31.829-31.829S465.697,376.233,448.146,376.233z M448.146,424.27
	c-8.937,0-16.208-7.27-16.208-16.208c0-8.937,7.271-16.208,16.208-16.208s16.208,7.27,16.208,16.208
	C464.354,417,457.084,424.27,448.146,424.27z"/>
<rect x="439.864" y="400.154" width="15.621" height="15.621"/>
<rect x="72.243" y="191.87" width="71.858" height="15.621"/>
<rect x="72.243" y="215.823" width="23.953" height="15.621"/>
<rect x="111.817" y="215.823" width="56.237" height="15.621"/>
<path d="M488.178,312.185h-55.6v-16.173h-15.621v16.173h-8.331v-96.362H256.577v40.615h-96.852v55.747H47.252v-8.883h56.237v-54.154
	H47.252v-73.941h224.946v33.325h15.621v-48.947h-15.621V72.107H72.246v87.479H31.631v152.599h-7.809
	C10.687,312.185,0,322.871,0,336.008c0,13.135,10.687,23.822,23.822,23.822h464.354c13.135,0,23.822-10.687,23.822-23.822
	C512,322.871,501.313,312.185,488.178,312.185z M159.726,87.728h24.994v8.331h-24.994V87.728z M87.868,87.728h56.237v23.953h56.237
	V87.728h56.237v71.858H87.868V87.728z M87.868,264.769v22.911H47.252v-22.911H87.868L87.868,264.769z M328.435,231.444v15.621
	h15.621v-15.621h48.947v80.741H272.199v-8.883h47.905v-46.864h-47.905v-24.994L328.435,231.444L328.435,231.444z M272.199,272.059
	h32.284v15.621h-32.284V272.059z M175.347,272.059h33.325v15.621h15.621v-15.621h32.284v40.126h-81.231V272.059z M488.178,344.209
	H23.822c-4.523,0-8.201-3.679-8.201-8.201c0-4.523,3.679-8.201,8.201-8.201h464.354c4.522,0,8.201,3.679,8.201,8.201
	C496.379,340.53,492.699,344.209,488.178,344.209z"/>
<path d="M432.577,159.586h11.633c3.612,4.9,9.405,8.098,15.945,8.098h32.025c10.929,0,19.819-8.892,19.819-19.82
	s-8.892-19.819-19.819-19.819h-32.025c-9.594,0-17.612,6.854-19.43,15.92h-23.769v31.243h15.621V159.586z M460.155,143.666h32.025
	c2.315,0,4.198,1.884,4.198,4.198c0,2.315-1.884,4.199-4.198,4.199h-32.025c-2.315,0-4.198-1.884-4.198-4.199
	C455.957,145.549,457.841,143.666,460.155,143.666z"/>
<path d="M320.104,200.201h96.852v87.479h15.621v-103.1h-33.325v-40.615h-95.811v15.621h16.663V200.201z M368.009,159.586h15.621
	v24.994h-15.621V159.586z M335.725,159.586h16.663v24.994h-16.663V159.586z"/>
<rect x="103.486" y="135.633" style="fill:#FFFFFF;" width="56.237" height="15.621"/>
<g>
</g>
<g>
</g>
<g>
</g>
<g>
</g>
<g>
</g>
<g>
</g>
<g>
</g>
<g>
</g>
<g>
</g>
<g>
</g>
<g>
</g>
<g>
</g>
<g>
</g>
<g>
</g>
<g>
</g>
</svg>
