<?xml version="1.0" encoding="iso-8859-1"?>
<!-- Generator: Adobe Illustrator 19.0.0, SVG Export Plug-In . SVG Version: 6.00 Build 0)  -->
<svg version="1.1" id="Layer_1" xmlns="http://www.w3.org/2000/svg" xmlns:xlink="http://www.w3.org/1999/xlink" x="0px" y="0px"
	 viewBox="0 0 511.999 511.999" style="enable-background:new 0 0 511.999 511.999;" xml:space="preserve">
<path style="fill:#FFD782;" d="M173.016,62.001l-0.031-16.526c-0.018-9.088,7.405-16.538,16.493-16.555l132.191-0.249
	c9.088-0.018,16.538,7.405,16.555,16.493l0.031,16.526l0.155,82.621l0.605,322.213c0.018,9.088-7.405,16.538-16.493,16.555
	l-132.191,0.249c-9.088,0.018-16.538-7.405-16.555-16.493l-0.605-322.213L173.016,62.001z"/>
<path style="fill:#FF6464;" d="M173.776,466.834c0.018,9.088-7.405,16.537-16.493,16.555l-132.191,0.249
	c-9.088,0.018-16.538-7.405-16.555-16.493L7.746,45.786c-0.018-9.088,7.405-16.538,16.493-16.555l132.191-0.249
	c9.088-0.018,16.538,7.405,16.555,16.493"/>
<path style="fill:#C3E678;" d="M338.223,45.164c-0.018-9.088,7.405-16.538,16.493-16.555l132.191-0.249
	c9.088-0.018,16.538,7.405,16.555,16.493l0.792,421.359c0.018,9.088-7.405,16.537-16.493,16.555l-132.191,0.249
	c-9.088,0.018-16.537-7.405-16.555-16.493"/>
<g>
	<path style="fill:#EFF2FA;" d="M305.595,268.299c0.008,4.544-3.702,8.269-8.246,8.277l-82.62,0.155
		c-4.544,0.008-8.269-3.702-8.277-8.246l-0.311-165.239c-0.008-4.544,3.702-8.269,8.246-8.277l82.62-0.155
		c4.544-0.008,8.269,3.702,8.277,8.246L305.595,268.299z"/>
	<path style="fill:#EFF2FA;" d="M140.356,268.61c0.008,4.544-3.702,8.269-8.246,8.277l-82.62,0.155
		c-4.544,0.008-8.269-3.702-8.277-8.246l-0.311-165.239c-0.008-4.544,3.702-8.269,8.246-8.277l82.62-0.155
		c4.544-0.008,8.269,3.702,8.277,8.246L140.356,268.61z"/>
	<path style="fill:#EFF2FA;" d="M470.834,267.988c0.008,4.544-3.702,8.269-8.246,8.277l-82.62,0.155
		c-4.544,0.008-8.269-3.702-8.277-8.246l-0.311-165.239c-0.008-4.544,3.702-8.269,8.246-8.277l82.62-0.155
		c4.544-0.008,8.269,3.702,8.277,8.246L470.834,267.988z"/>
</g>
<g>
	<rect x="371.53" y="251.958" style="fill:#C7CFE2;" width="99.144" height="24.786"/>
	<rect x="206.291" y="251.958" style="fill:#C7CFE2;" width="99.144" height="24.786"/>
	<rect x="41.057" y="251.958" style="fill:#C7CFE2;" width="99.144" height="24.786"/>
	<rect x="371.53" y="93.948" style="fill:#C7CFE2;" width="99.144" height="58.866"/>
	<rect x="206.291" y="93.948" style="fill:#C7CFE2;" width="99.144" height="58.866"/>
	<rect x="41.057" y="93.948" style="fill:#C7CFE2;" width="99.144" height="58.866"/>
</g>
<g>
	<path style="fill:#464655;" d="M117.875,380.044c20.837,33.523-14.425,68.785-47.948,47.948c-2.712-1.685-5.012-3.985-6.697-6.697
		c-20.837-33.523,14.425-68.785,47.948-47.948C113.889,375.033,116.189,377.332,117.875,380.044z"/>
	<path style="fill:#464655;" d="M283.63,380.044c20.837,33.523-14.425,68.785-47.948,47.948c-2.712-1.685-5.012-3.985-6.697-6.697
		c-20.837-33.523,14.425-68.785,47.948-47.948C279.645,375.033,281.945,377.332,283.63,380.044z"/>
	<path style="fill:#464655;" d="M449.902,380.044c20.837,33.523-14.425,68.785-47.948,47.948c-2.712-1.685-5.012-3.985-6.697-6.697
		c-20.837-33.523,14.425-68.785,47.948-47.948C445.917,375.033,448.217,377.332,449.902,380.044z"/>
</g>
<path d="M173.078,87.298c-0.005,0-0.01,0-0.015,0c-4.278,0.008-7.739,3.482-7.731,7.76l0.031,16.523
	c0.008,4.272,3.474,7.731,7.746,7.731c0.005,0,0.01,0,0.016,0c4.278-0.008,7.739-3.482,7.731-7.76l-0.031-16.523
	C180.815,90.757,177.349,87.298,173.078,87.298z"/>
<path d="M338.317,86.988c-0.005,0-0.01,0-0.016,0c-4.278,0.008-7.739,3.482-7.731,7.76l0.031,16.523
	c0.008,4.272,3.474,7.731,7.746,7.731c0.005,0,0.01,0,0.016,0c4.278-0.008,7.739-3.482,7.731-7.76l-0.031-16.523
	C346.054,90.446,342.587,86.988,338.317,86.988z"/>
<path d="M511.208,44.839c-0.025-13.368-10.907-24.224-24.27-24.224c-0.014,0-0.032,0-0.046,0l-132.191,0.249
	c-6.185,0.011-12.018,2.343-16.527,6.574c-4.521-4.2-10.339-6.484-16.521-6.512l-132.19,0.249
	c-6.178,0.011-12.006,2.337-16.512,6.56c-4.511-4.195-10.328-6.498-16.489-6.498c-0.015,0-0.031,0-0.046,0L24.224,21.484
	c-6.464,0.012-12.549,2.553-17.133,7.155C2.505,33.242-0.012,39.335,0,45.8l0.792,421.36c0.025,13.367,10.908,24.224,24.268,24.224
	c0.015,0,0.031,0,0.046,0l132.191-0.249c6.178-0.011,12.006-2.338,16.512-6.56c4.511,4.195,10.328,6.498,16.489,6.498
	c0.015,0,0.031,0,0.046,0l132.191-0.249c6.175-0.011,11.999-2.335,16.504-6.554c4.334,4.025,10.132,6.492,16.496,6.492
	c0.016,0,0.031,0,0.046,0l132.191-0.249c13.382-0.025,24.249-10.933,24.224-24.315L511.208,44.839z M487.747,475.022l-132.191,0.249
	c-0.006,0-0.011,0-0.017,0c-4.832,0-8.769-3.928-8.778-8.762l-0.605-322.213c-0.008-4.272-3.474-7.731-7.746-7.731
	c-0.005,0-0.01,0-0.016,0c-4.278,0.008-7.739,3.482-7.731,7.76l0.605,322.213c0.004,2.326-0.91,4.528-2.574,6.198
	c-1.664,1.67-3.861,2.592-6.188,2.597l-132.191,0.249c-0.005,0-0.011,0-0.017,0c-2.321,0-4.515-0.914-6.181-2.574
	c-1.67-1.664-2.592-3.861-2.597-6.188l-0.605-322.213c-0.008-4.273-3.474-7.731-7.746-7.731c-0.005,0-0.01,0-0.015,0
	c-4.278,0.008-7.739,3.482-7.731,7.76l0.605,322.213c0.004,2.326-0.91,4.528-2.574,6.198c-1.664,1.67-3.861,2.592-6.188,2.597
	l-132.191,0.249c-0.006,0-0.011,0-0.017,0c-4.832,0-8.769-3.928-8.778-8.762L15.491,45.77c-0.004-2.326,0.91-4.528,2.574-6.198
	c1.664-1.67,3.861-2.592,6.188-2.597l132.191-0.248c0.006,0,0.011,0,0.017,0c4.832,0,8.769,3.928,8.778,8.762l0.031,16.526
	c0.008,4.272,3.474,7.731,7.746,7.731c0.005,0,0.01,0,0.016,0c4.278-0.008,7.739-3.482,7.731-7.76L180.73,45.46
	c-0.004-2.327,0.91-4.528,2.574-6.198c1.664-1.67,3.861-2.592,6.188-2.596l132.191-0.249c0.005,0,0.011,0,0.017,0
	c2.321,0,4.515,0.914,6.181,2.574c1.67,1.664,2.592,3.861,2.597,6.188l0.031,16.526c0.008,4.272,3.474,7.731,7.746,7.731
	c0.005,0,0.01,0,0.016,0c4.278-0.008,7.739-3.482,7.731-7.76L345.97,45.15c-0.004-2.326,0.91-4.528,2.574-6.198
	c1.664-1.67,3.861-2.592,6.188-2.597l132.191-0.249c0.006,0,0.011,0,0.017,0c4.832,0,8.769,3.928,8.778,8.762l0.792,421.359
	C496.518,471.067,492.588,475.013,487.747,475.022z"/>
<path d="M286.313,384.757c-4.14,1.076-6.625,5.304-5.55,9.444c0.534,2.053,0.807,4.185,0.811,6.335
	c0.012,6.758-2.607,13.117-7.377,17.905c-4.77,4.788-11.12,7.432-17.878,7.444c-0.017,0-0.032,0-0.049,0
	c-6.74,0-13.08-2.619-17.856-7.377c-4.788-4.77-7.432-11.12-7.444-17.878c-0.012-6.758,2.607-13.117,7.377-17.905
	c4.77-4.788,11.12-7.432,17.879-7.444c2.172,0.005,4.288,0.261,6.348,0.789c4.146,1.06,8.364-1.438,9.425-5.582
	c1.061-4.144-1.438-8.364-5.582-9.425c-3.325-0.852-6.787-1.291-10.222-1.273c-10.896,0.021-21.132,4.283-28.823,12.003
	c-7.69,7.719-11.915,17.971-11.894,28.867c0.021,10.897,4.283,21.132,12.003,28.823c7.701,7.672,17.921,11.894,28.789,11.894
	c0.026,0,0.053,0,0.078,0c10.897-0.021,21.132-4.283,28.823-12.003c7.69-7.719,11.915-17.971,11.894-28.868
	c-0.006-3.453-0.447-6.885-1.307-10.2C294.682,386.164,290.452,383.68,286.313,384.757z"/>
<path d="M121.075,385.066c-4.14,1.075-6.626,5.303-5.551,9.443c0.534,2.055,0.806,4.187,0.81,6.336
	c0.013,6.758-2.607,13.117-7.377,17.905c-4.77,4.788-11.12,7.432-17.878,7.444c-0.017,0-0.032,0-0.049,0
	c-13.93,0-25.275-11.319-25.301-25.255c-0.026-13.951,11.302-25.324,25.255-25.35c2.138,0.024,4.288,0.261,6.349,0.789
	c4.144,1.061,8.364-1.438,9.425-5.582c1.061-4.144-1.438-8.364-5.582-9.425c-3.325-0.852-6.744-1.233-10.222-1.273
	c-22.493,0.042-40.758,18.377-40.716,40.87c0.042,22.468,18.332,40.719,40.792,40.717c0.025,0,0.054,0,0.078,0
	c10.896-0.021,21.132-4.283,28.823-12.003c7.691-7.72,11.915-17.971,11.894-28.866c-0.006-3.452-0.446-6.884-1.307-10.2
	C129.443,386.476,125.217,383.994,121.075,385.066z"/>
<path d="M451.553,384.446c-4.14,1.075-6.626,5.302-5.551,9.443c0.534,2.056,0.807,4.188,0.81,6.337
	c0.026,13.951-11.302,25.324-25.255,25.35c-0.017,0-0.032,0-0.049,0c-6.74,0-13.081-2.619-17.856-7.377
	c-4.788-4.77-7.432-11.12-7.444-17.878c-0.026-13.951,11.302-25.324,25.255-25.35c2.159-0.01,4.289,0.261,6.349,0.789
	c4.144,1.06,8.364-1.438,9.425-5.582s-1.439-8.364-5.582-9.425c-3.326-0.852-6.814-1.283-10.222-1.273
	c-22.493,0.042-40.758,18.377-40.716,40.87c0.042,22.468,18.332,40.719,40.792,40.717c0.025,0,0.054,0,0.078,0
	c22.493-0.042,40.758-18.377,40.716-40.869c-0.006-3.451-0.446-6.883-1.307-10.2C459.923,385.856,455.693,383.371,451.553,384.446z"
	/>
<path d="M296.992,87.068l-82.619,0.155c-8.827,0.017-15.994,7.211-15.978,16.037l0.31,165.239
	c0.017,8.81,7.197,15.978,16.008,15.978c0.005,0,0.025,0,0.03,0l82.62-0.155c4.266-0.008,8.281-1.683,11.302-4.717
	c3.023-3.034,4.682-7.055,4.674-11.321l-0.311-165.239C313.013,94.235,305.832,87.068,296.992,87.068z M297.692,268.672
	c-0.105,0.105-0.225,0.159-0.358,0.159l-82.62,0.155v7.746l-0.001-7.487v-0.258c-0.264,0-0.516-0.251-0.516-0.515l-0.31-165.239
	c0-0.265,0.25-0.516,0.515-0.517l82.62-0.155c0.264,0,0.516,0.251,0.516,0.515l0.311,165.239
	C297.849,268.447,297.796,268.566,297.692,268.672z"/>
<path d="M239.251,143.977c0.005,0,0.01,0,0.015,0l33.048-0.062c4.278-0.008,7.739-3.482,7.731-7.76
	c-0.008-4.273-3.474-7.731-7.746-7.731c-0.005,0-0.01,0-0.016,0l-33.048,0.062c-4.278,0.008-7.739,3.482-7.731,7.76
	C231.514,140.518,234.98,143.977,239.251,143.977z"/>
<path d="M239.313,177.025c0.005,0,0.01,0,0.015,0l33.048-0.062c4.278-0.008,7.739-3.482,7.731-7.76
	c-0.008-4.273-3.474-7.731-7.746-7.731c-0.005,0-0.01,0-0.016,0l-33.048,0.062c-4.278,0.008-7.739,3.482-7.731,7.76
	C231.576,173.566,235.042,177.025,239.313,177.025z"/>
<path d="M239.375,210.073c0.005,0,0.01,0,0.015,0l33.048-0.062c4.278-0.008,7.739-3.482,7.731-7.76
	c-0.008-4.273-3.474-7.731-7.746-7.731c-0.005,0-0.01,0-0.016,0l-33.048,0.062c-4.278,0.008-7.739,3.482-7.731,7.76
	C231.638,206.614,235.104,210.073,239.375,210.073z"/>
<path d="M272.486,227.568c-0.005,0-0.01,0-0.016,0l-33.048,0.062c-4.278,0.008-7.739,3.482-7.731,7.76
	c0.008,4.272,3.474,7.731,7.746,7.731c0.005,0,0.01,0,0.016,0l33.048-0.062c4.278-0.008,7.739-3.482,7.731-7.76
	C280.222,231.025,276.756,227.568,272.486,227.568z"/>
<path d="M131.754,87.379l-82.62,0.155c-8.827,0.017-15.994,7.211-15.978,16.038l0.311,165.239
	c0.017,8.81,7.197,15.978,16.008,15.978c0.005,0,0.025,0,0.03,0l82.62-0.155c4.266-0.008,8.281-1.683,11.302-4.717
	c3.023-3.034,4.682-7.055,4.674-11.321l-0.311-165.239C147.775,94.546,140.594,87.379,131.754,87.379z M132.453,268.983
	c-0.105,0.105-0.225,0.159-0.358,0.159l-82.62,0.155v7.746l-0.001-7.487v-0.258c-0.264,0-0.516-0.251-0.516-0.515l-0.311-165.239
	c0-0.265,0.25-0.516,0.515-0.517l82.621-0.155c0.264,0,0.516,0.251,0.516,0.515l0.311,165.239
	C132.611,268.757,132.558,268.877,132.453,268.983z"/>
<path d="M74.012,144.288c0.005,0,0.01,0,0.015,0l33.048-0.062c4.278-0.008,7.739-3.482,7.731-7.76
	c-0.008-4.273-3.474-7.731-7.746-7.731c-0.005,0-0.01,0-0.015,0l-33.048,0.062c-4.278,0.008-7.739,3.482-7.731,7.76
	C66.274,140.829,69.74,144.288,74.012,144.288z"/>
<path d="M74.074,177.336c0.005,0,0.01,0,0.015,0l33.048-0.062c4.278-0.008,7.739-3.482,7.731-7.76
	c-0.008-4.273-3.474-7.731-7.746-7.731c-0.005,0-0.01,0-0.015,0l-33.048,0.062c-4.278,0.008-7.739,3.482-7.731,7.76
	C66.336,173.877,69.802,177.336,74.074,177.336z"/>
<path d="M107.185,194.831c-0.005,0-0.01,0-0.015,0l-33.048,0.062c-4.278,0.008-7.739,3.482-7.731,7.76
	c0.008,4.272,3.474,7.731,7.746,7.731c0.005,0,0.01,0,0.015,0l33.048-0.062c4.278-0.008,7.739-3.482,7.731-7.76
	C114.921,198.288,111.455,194.831,107.185,194.831z"/>
<path d="M462.231,86.757l-82.62,0.155c-8.827,0.017-15.994,7.211-15.978,16.037l0.311,165.239
	c0.017,8.81,7.197,15.978,16.008,15.978c0.005,0,0.025,0,0.03,0l82.619-0.155c4.267-0.007,8.282-1.682,11.304-4.717
	c3.022-3.033,4.682-7.054,4.674-11.321l-0.311-165.239C478.252,93.924,471.071,86.757,462.231,86.757z M462.93,268.361
	c-0.105,0.105-0.225,0.159-0.358,0.159l-82.62,0.155v7.746l-0.001-7.487v-0.258c-0.264,0-0.516-0.251-0.516-0.515l-0.311-165.239
	c0-0.265,0.25-0.516,0.515-0.517l82.621-0.155c0.264,0,0.516,0.251,0.516,0.515l0.311,165.238
	C463.088,268.135,463.036,268.256,462.93,268.361z"/>
<path d="M404.489,143.667c0.005,0,0.01,0,0.016,0l33.048-0.063c4.278-0.008,7.739-3.482,7.731-7.76
	c-0.008-4.272-3.474-7.731-7.746-7.731c-0.005,0-0.01,0-0.016,0l-33.048,0.063c-4.278,0.008-7.739,3.482-7.731,7.76
	C396.752,140.209,400.219,143.667,404.489,143.667z"/>
<path d="M437.6,161.161c-0.005,0-0.01,0-0.016,0l-33.048,0.062c-4.278,0.008-7.739,3.482-7.731,7.76
	c0.008,4.272,3.474,7.731,7.746,7.731c0.005,0,0.01,0,0.016,0l33.048-0.062c4.278-0.008,7.739-3.482,7.731-7.76
	C445.337,164.619,441.871,161.161,437.6,161.161z"/>
<g>
</g>
<g>
</g>
<g>
</g>
<g>
</g>
<g>
</g>
<g>
</g>
<g>
</g>
<g>
</g>
<g>
</g>
<g>
</g>
<g>
</g>
<g>
</g>
<g>
</g>
<g>
</g>
<g>
</g>
</svg>
