<?xml version="1.0" encoding="iso-8859-1"?>
<!-- Generator: Adobe Illustrator 19.0.0, SVG Export Plug-In . SVG Version: 6.00 Build 0)  -->
<svg xmlns="http://www.w3.org/2000/svg" xmlns:xlink="http://www.w3.org/1999/xlink" version="1.1" id="Capa_1" x="0px" y="0px" viewBox="0 0 505 505" style="enable-background:new 0 0 505 505;" xml:space="preserve" width="512" height="512">
<g>
	<path style="fill:#FFA317;" d="M252.5,7.5c-135.31,0-245,109.69-245,245s109.69,245,245,245s245-109.69,245-245   S387.81,7.5,252.5,7.5z M252.5,287.689c-19.434,0-35.189-15.755-35.189-35.188c0-19.434,15.754-35.189,35.189-35.189   c19.434,0,35.188,15.755,35.188,35.189C287.688,271.934,271.934,287.689,252.5,287.689z"/>
	<path style="fill:#5A9DEE;" d="M252.5,156.647c-52.939,0-95.854,42.915-95.854,95.854s42.915,95.854,95.854,95.854   c52.938,0,95.854-42.915,95.854-95.854S305.438,156.647,252.5,156.647z M252.5,287.689c-19.434,0-35.189-15.755-35.189-35.188   c0-19.434,15.754-35.189,35.189-35.189c19.434,0,35.188,15.755,35.188,35.189C287.688,271.934,271.934,287.689,252.5,287.689z"/>
	<g>
		<path style="fill:#214245;" d="M431.044,73.956C383.354,26.265,319.945,0,252.5,0S121.646,26.265,73.955,73.956    C26.265,121.647,0,185.055,0,252.5s26.265,130.854,73.955,178.544C121.646,478.735,185.055,505,252.5,505    s130.854-26.265,178.544-73.956C478.735,383.354,505,319.945,505,252.5S478.735,121.647,431.044,73.956z M420.438,84.563    C465.296,129.42,490,189.062,490,252.5c0,9.652-0.58,19.216-1.708,28.654l-132.768-20.407c0.216-2.722,0.329-5.471,0.329-8.247    c0-56.989-46.364-103.354-103.354-103.354c-25.801,0-49.424,9.504-67.553,25.194l-94.99-94.99C134.148,37.802,191.569,15,252.5,15    C315.938,15,375.58,39.704,420.438,84.563z M252.5,340.854c-48.718,0-88.354-39.635-88.354-88.354    c0-48.719,39.635-88.354,88.354-88.354c48.719,0,88.354,39.635,88.354,88.354C340.854,301.219,301.219,340.854,252.5,340.854z     M79.35,89.957l94.99,94.99c-10.868,12.558-18.765,27.751-22.594,44.477L18.965,209.017    C27.148,164.55,47.858,123.452,79.35,89.957z M84.562,420.438C39.704,375.58,15,315.939,15,252.5    c0-9.652,0.58-19.216,1.708-28.654l132.768,20.407c-0.216,2.722-0.329,5.471-0.329,8.247c0,56.989,46.364,103.354,103.354,103.354    c25.801,0,49.423-9.504,67.552-25.193l94.99,94.989C370.852,467.198,313.432,490,252.5,490    C189.061,490,129.42,465.296,84.562,420.438z M425.649,415.042l-94.99-94.989c10.868-12.557,18.766-27.751,22.595-44.478    l132.781,20.408C477.853,340.45,457.143,381.547,425.649,415.042z"/>
		<path style="fill:#214245;" d="M252.5,209.812c-23.539,0-42.689,19.15-42.689,42.689s19.15,42.688,42.689,42.688    c23.538,0,42.688-19.15,42.688-42.688S276.038,209.812,252.5,209.812z M252.5,280.189c-15.268,0-27.689-12.421-27.689-27.688    s12.421-27.689,27.689-27.689c15.267,0,27.688,12.421,27.688,27.689S267.767,280.189,252.5,280.189z"/>
		<path style="fill:#214245;" d="M45.668,334.833c6.98,17.547,16.235,34.188,27.508,49.459l12.068-8.908    c-10.508-14.236-19.134-29.745-25.639-46.096L45.668,334.833z"/>
		<path style="fill:#214245;" d="M97.44,390.399l-11.195,9.982c2.865,3.213,5.867,6.393,8.924,9.45    C137.194,451.856,193.068,475,252.5,475v-15c-55.425,0-107.533-21.584-146.724-60.774    C102.92,396.369,100.116,393.399,97.44,390.399z"/>
	</g>
</g>















</svg>
