<?xml version="1.0" encoding="iso-8859-1"?>
<!-- Generator: Adobe Illustrator 19.0.0, SVG Export Plug-In . SVG Version: 6.00 Build 0)  -->
<svg version="1.1" id="Layer_1" xmlns="http://www.w3.org/2000/svg" xmlns:xlink="http://www.w3.org/1999/xlink" x="0px" y="0px"
	 viewBox="0 0 512.001 512.001" style="enable-background:new 0 0 512.001 512.001;" xml:space="preserve">
<path style="fill:#B99678;" d="M7.648,295.38l31.748-145.656c1.214-7.784,7.911-13.528,15.79-13.543h0.196l400.276-0.753h0.196
	c7.878-0.015,14.597,5.704,15.841,13.484l32.295,145.536"/>
<path style="fill:#E1C3A0;" d="M504.052,327.47l-0.06-32.022c-0.017-8.806-7.235-15.997-16.041-15.981l-464.32,0.873
	c-8.806,0.017-15.997,7.235-15.981,16.041l0.06,32.022"/>
<path style="fill:#F0DCBE;" d="M383.938,311.685l-360.247,0.677c-8.806,0.017-15.997,7.235-15.981,16.041l0.301,160.111
	c0.017,8.806,7.235,15.997,16.041,15.981l464.32-0.873c8.806-0.017,15.997-7.235,15.981-16.041l-0.301-160.111
	c-0.017-8.806-7.235-15.997-16.041-15.981l-24.017,0.045"/>
<path style="fill:#B99678;" d="M352.098,407.811c0.017,8.806-7.175,16.025-15.981,16.041l-160.111,0.301
	c-8.806,0.017-16.025-7.175-16.041-15.981l0,0c-0.017-8.806,7.175-16.025,15.981-16.041l160.111-0.301
	C344.862,391.814,352.081,399.005,352.098,407.811L352.098,407.811z"/>
<path style="fill:#EFF2FA;" d="M87.614,279.821l-0.256-167.718c-0.008-4.403,3.587-8.013,7.991-8.021l320.22-0.601
	c4.403-0.008,8.013,3.587,8.021,7.991l0.256,167.35L87.614,279.821z"/>
<path style="fill:#C7CFE2;" d="M103.355,104.068l-0.045-24.017c-0.008-4.403,3.587-8.013,7.991-8.021l288.198-0.541
	c4.403-0.008,8.013,3.587,8.021,7.991l0.045,24.017"/>
<path style="fill:#8F96AC;" d="M119.305,72.016l-0.045-24.017c-0.008-4.403,3.587-8.013,7.991-8.021l256.177-0.481
	c4.403-0.008,8.013,3.587,8.021,7.991l0.045,24.017"/>
<path style="fill:#707487;" d="M135.256,39.964l-0.045-24.017c-0.008-4.403,3.587-8.013,7.991-8.021l224.155-0.421
	c4.403-0.008,8.013,3.587,8.021,7.991l0.045,24.017"/>
<path d="M511.557,327.455l-0.06-32.022c0-0.211-0.011-0.42-0.017-0.63c0.024-0.516-0.006-1.042-0.093-1.57
	c-0.179-1.886-0.585-3.707-1.185-5.437l-31.137-140.311c-1.933-11.359-11.637-19.563-23.165-19.563c-0.015,0-0.032,0-0.047,0h-0.196
	c-4.145,0-7.505,3.36-7.505,7.505c0,4.145,3.36,7.505,7.505,7.505h0.21c0.006,0,0.011,0,0.017,0c4.204,0,7.734,3.01,8.399,7.163
	c0.023,0.148,0.051,0.295,0.084,0.441l27,121.671c-1.106-0.16-2.236-0.247-3.385-0.247c-0.015,0-0.03,0-0.045,0l-464.32,0.873
	c-1.158,0.002-2.303,0.089-3.428,0.256L46.73,151.322c0.032-0.146,0.059-0.293,0.083-0.442c0.648-4.161,4.176-7.187,8.392-7.194
	h0.196c4.145-0.01,7.497-3.378,7.486-7.524c-0.01-4.139-3.368-7.486-7.505-7.486c-0.006,0-0.013,0-0.019,0h-0.191
	c-11.562,0.021-21.26,8.271-23.152,19.651L1.419,288.715c-0.607,1.765-1.005,3.607-1.176,5.495c-0.083,0.522-0.11,1.041-0.085,1.551
	c-0.005,0.212-0.015,0.422-0.014,0.635l0.06,32.022l0.301,160.111c0.024,12.952,10.569,23.472,23.515,23.472c0.015,0,0.03,0,0.045,0
	l464.32-0.873c6.263-0.012,12.159-2.474,16.601-6.933c4.442-4.459,6.882-10.364,6.871-16.629L511.557,327.455z M488.357,496.116
	l-464.32,0.873c-0.005,0-0.011,0-0.016,0c-2.249,0-4.375-0.886-5.989-2.494c-1.618-1.612-2.512-3.742-2.517-5.996l-0.301-160.111
	c-0.004-2.254,0.882-4.387,2.494-6.005c1.612-1.618,3.742-2.512,5.996-2.517l360.248-0.677c4.145-0.008,7.499-3.374,7.491-7.519
	c-0.008-4.141-3.366-7.491-7.505-7.491c-0.004,0-0.01,0-0.014,0l-360.248,0.677c-2.955,0.006-5.825,0.563-8.503,1.611l-0.019-10.102
	c0-0.08,0.009-0.158,0.011-0.238l0.676-3.101c0.421-0.979,1.027-1.883,1.806-2.666c1.612-1.618,3.742-2.512,5.996-2.517
	l464.32-0.873c0.005,0,0.011,0,0.016,0c3.485,0,6.486,2.109,7.798,5.119l0.694,3.131c0.002,0.081,0.013,0.159,0.013,0.24
	l0.019,10.104c-2.629-1.018-5.481-1.582-8.464-1.582c-0.015,0-0.03,0-0.045,0l-24.017,0.045c-4.145,0.008-7.499,3.374-7.491,7.519
	c0.008,4.141,3.366,7.491,7.505,7.491c0.005,0,0.01,0,0.015,0l24.017-0.045c0.005,0,0.011,0,0.016,0c4.683,0,8.497,3.805,8.506,8.49
	l0.301,160.111C496.856,492.284,493.047,496.108,488.357,496.116z"/>
<path d="M431.975,304.089c-0.005,0-0.01,0-0.015,0l-16.013,0.03c-4.145,0.008-7.499,3.374-7.491,7.519
	c0.008,4.14,3.366,7.491,7.505,7.491c0.005,0,0.01,0,0.015,0l16.013-0.03c4.145-0.008,7.499-3.374,7.491-7.519
	C439.471,307.441,436.113,304.089,431.975,304.089z"/>
<path d="M336.042,384.325l-160.111,0.301c-6.263,0.012-12.159,2.474-16.601,6.933c-4.442,4.459-6.882,10.364-6.87,16.628
	c0.024,12.943,10.573,23.472,23.516,23.472c0.004,0,0.04,0,0.044,0l160.111-0.301c12.967-0.024,23.496-10.593,23.472-23.559
	C359.578,394.855,349.029,384.325,336.042,384.325z M336.102,416.347l-160.111,0.301l-0.016,7.505v-7.505
	c-4.681,0-8.497-3.809-8.506-8.49c-0.004-2.254,0.882-4.387,2.494-6.005c1.612-1.618,3.742-2.512,5.996-2.517l160.126-0.301
	c4.682,0,8.498,3.809,8.506,8.49C344.601,412.515,340.792,416.338,336.102,416.347z"/>
<path d="M87.613,255.703c0.005,0,0.01,0,0.015,0c4.145-0.008,7.499-3.374,7.491-7.519l-0.255-136.094c0-0.257,0.242-0.5,0.499-0.501
	l7.985-0.015c0.002,0,0.005,0,0.007,0c0.005,0,0.01,0,0.015,0c0.002,0,0.005,0,0.008,0l312.208-0.586c0,0,0,0,0.001,0
	c0.128,0,0.244,0.051,0.346,0.153s0.154,0.218,0.154,0.346l0.255,136.094c0.008,4.141,3.366,7.491,7.505,7.491
	c0.005,0,0.01,0,0.015,0c4.145-0.008,7.499-3.374,7.491-7.519l-0.255-136.094c-0.008-4.134-1.631-8.024-4.57-10.953
	c-2.933-2.921-6.817-4.529-10.94-4.529c-0.01,0-0.02,0-0.03,0l-0.5,0.001l-0.031-16.511c-0.008-4.134-1.631-8.024-4.57-10.953
	c-2.933-2.921-6.817-4.529-10.94-4.529c-0.01,0-0.021,0-0.03,0l-0.5,0.001l-0.031-16.511c-0.008-4.134-1.631-8.024-4.57-10.953
	c-2.933-2.921-6.817-4.529-10.94-4.529c-0.01,0-0.02,0-0.03,0l-0.5,0.001l-0.031-16.511c-0.008-4.134-1.631-8.024-4.57-10.952
	C375.379,1.607,371.495,0,367.372,0c-0.01,0-0.02,0-0.03,0L143.187,0.421c-8.552,0.016-15.497,6.987-15.481,15.54l0.031,16.511
	l-0.5,0.001c-8.552,0.016-15.497,6.987-15.482,15.54l0.031,16.511l-0.5,0.001c-8.553,0.016-15.498,6.987-15.482,15.54l0.031,16.511
	l-0.5,0.001c-4.134,0.008-8.024,1.631-10.953,4.57c-2.928,2.94-4.537,6.836-4.529,10.97l0.255,136.094
	C80.117,252.352,83.475,255.703,87.613,255.703z M142.716,15.933c0-0.257,0.242-0.5,0.499-0.501l224.155-0.421l0,0
	c0.128,0,0.245,0.051,0.346,0.152c0.102,0.102,0.154,0.218,0.154,0.347l0.031,16.511l-225.156,0.423L142.716,15.933z
	 M126.765,47.986c0-0.258,0.242-0.501,0.5-0.502l7.985-0.015c0.002,0,0.005,0,0.007,0c0.005,0,0.01,0,0.015,0
	c0.002,0,0.005,0,0.008,0l240.142-0.451h0.001c0.005,0,0.01,0,0.015,0c0.001,0,0.001,0,0.002,0l8.004-0.015c0,0,0,0,0.001,0
	c0.128,0,0.244,0.051,0.346,0.153c0.102,0.102,0.154,0.218,0.154,0.346l0.031,16.511l-257.178,0.483L126.765,47.986z
	 M110.815,80.037c0-0.257,0.242-0.5,0.499-0.501l280.178-0.526h0.001c0.005,0,0.01,0,0.015,0c0,0,0.001,0,0.002,0l8.004-0.015
	c0,0,0,0,0.001,0c0.128,0,0.244,0.051,0.346,0.153c0.102,0.102,0.154,0.218,0.154,0.346l0.031,16.511l-289.2,0.543L110.815,80.037z"
	/>
<path d="M167.563,191.507l64.044-0.12c4.145-0.008,7.499-3.374,7.491-7.519c-0.008-4.141-3.366-7.491-7.505-7.491
	c-0.005,0-0.01,0-0.015,0l-64.044,0.12c-4.145,0.008-7.499,3.374-7.491,7.519c0.008,4.141,3.366,7.491,7.505,7.491
	C167.553,191.507,167.559,191.507,167.563,191.507z"/>
<path d="M287.071,151.756c-0.008-4.14-3.366-7.491-7.505-7.491c-0.005,0-0.01,0-0.015,0l-112.077,0.21
	c-4.145,0.008-7.499,3.374-7.491,7.519c0.008,4.141,3.366,7.491,7.505,7.491c0.005,0,0.01,0,0.015,0l112.077-0.21
	C283.726,159.267,287.079,155.901,287.071,151.756z"/>
<path d="M127.476,159.561l8.006-0.015c4.145-0.008,7.499-3.374,7.491-7.519c-0.008-4.14-3.366-7.491-7.505-7.491
	c-0.005,0-0.01,0-0.015,0l-8.006,0.015c-4.145,0.008-7.499,3.374-7.491,7.519c0.008,4.14,3.366,7.491,7.505,7.491
	C127.466,159.561,127.471,159.561,127.476,159.561z"/>
<path d="M127.521,191.583c0.005,0,0.01,0,0.015,0l8.006-0.015c4.145-0.008,7.499-3.374,7.491-7.519
	c-0.008-4.14-3.366-7.491-7.505-7.491c-0.005,0-0.01,0-0.015,0l-8.006,0.015c-4.145,0.008-7.499,3.374-7.491,7.519
	C120.025,188.232,123.383,191.583,127.521,191.583z"/>
<path d="M199.678,240.481l-72.05,0.135c-4.145,0.008-7.499,3.374-7.491,7.519c0.008,4.141,3.366,7.491,7.505,7.491
	c0.005,0,0.01,0,0.015,0l72.05-0.135c4.145-0.008,7.499-3.374,7.491-7.519c-0.008-4.141-3.366-7.491-7.505-7.491
	C199.688,240.481,199.682,240.481,199.678,240.481z"/>
<path d="M263.176,215.845c-0.008-4.141-3.366-7.491-7.505-7.491c-0.005,0-0.01,0-0.015,0l-128.089,0.241
	c-4.145,0.008-7.499,3.374-7.491,7.519c0.008,4.141,3.366,7.491,7.505,7.491c0.005,0,0.01,0,0.015,0l128.089-0.241
	C259.829,223.356,263.184,219.99,263.176,215.845z"/>
<path d="M343.745,223.198l40.028-0.075c4.145-0.008,7.499-3.374,7.491-7.519c-0.008-4.141-3.366-7.491-7.505-7.491
	c-0.005,0-0.01,0-0.015,0l-40.028,0.075c-4.145,0.008-7.499,3.374-7.491,7.519c0.008,4.141,3.366,7.491,7.505,7.491
	C343.735,223.198,343.74,223.198,343.745,223.198z"/>
<path d="M287.752,255.327c0.005,0,0.01,0,0.015,0l96.066-0.181c4.145-0.008,7.499-3.374,7.491-7.519
	c-0.008-4.14-3.366-7.491-7.505-7.491c-0.005,0-0.01,0-0.015,0l-96.066,0.181c-4.145,0.008-7.499,3.374-7.491,7.519
	C280.255,251.975,283.614,255.327,287.752,255.327z"/>
<g>
</g>
<g>
</g>
<g>
</g>
<g>
</g>
<g>
</g>
<g>
</g>
<g>
</g>
<g>
</g>
<g>
</g>
<g>
</g>
<g>
</g>
<g>
</g>
<g>
</g>
<g>
</g>
<g>
</g>
</svg>
