<?xml version="1.0" encoding="iso-8859-1"?>
<!-- Generator: Adobe Illustrator 19.0.0, SVG Export Plug-In . SVG Version: 6.00 Build 0)  -->
<svg version="1.1" id="Layer_1" xmlns="http://www.w3.org/2000/svg" xmlns:xlink="http://www.w3.org/1999/xlink" x="0px" y="0px"
	 viewBox="0 0 512 512" style="enable-background:new 0 0 512 512;" xml:space="preserve">
<polygon style="fill:#E7AD7C;" points="71.651,14.181 71.651,180.121 71.651,331.879 71.651,497.819 440.349,497.819
	440.349,331.879 440.349,180.121 440.349,14.181 "/>
<polygon style="fill:#F4D15A;" points="125.639,71.354 125.639,112.387 125.639,153.419 125.639,194.451 386.363,194.451
	386.363,153.419 386.363,112.387 386.363,71.354 "/>
<polygon style="fill:#E7AD7C;" points="125.639,194.451 125.639,235.484 125.639,276.516 125.639,317.548 386.363,317.548
	386.363,276.516 386.363,235.484 386.363,194.451 "/>
<polygon style="fill:#F4D15A;" points="125.639,317.548 125.639,358.581 125.639,399.613 125.639,440.646 386.363,440.646
	386.363,399.613 386.363,358.581 386.363,317.548 "/>
<path d="M440.349,0H71.651c-7.832,0-14.181,6.35-14.181,14.181v483.639c0,7.831,6.349,14.181,14.181,14.181h368.697
	c7.832,0,14.181-6.35,14.181-14.181V14.181C454.529,6.35,448.181,0,440.349,0z M426.168,483.639H85.832V28.361h340.336V483.639z"/>
<path d="M125.639,454.825h260.724c7.832,0,14.181-6.35,14.181-14.181V317.548V194.45V71.354c0-7.831-6.349-14.181-14.181-14.181
	H125.639c-7.832,0-14.181,6.35-14.181,14.181v123.097v123.098v123.097C111.458,448.476,117.807,454.825,125.639,454.825z
	 M372.182,303.368H139.819v-33.187h146.926c7.832,0,14.181-6.35,14.181-14.181s-6.349-14.181-14.181-14.181H139.819v-33.187h232.363
	V303.368z M372.182,426.464H139.819v-94.735h232.363V426.464z M139.819,85.535h232.363v94.735H139.819V85.535z"/>
<path d="M329.286,270.18c-3.744,0-7.388-1.517-10.026-4.156c-2.638-2.636-4.155-6.295-4.155-10.024c0-0.922,0.099-1.859,0.284-2.765
	c0.17-0.908,0.454-1.802,0.808-2.666c0.355-0.852,0.78-1.675,1.29-2.44c0.525-0.78,1.12-1.503,1.773-2.155
	c0.652-0.652,1.376-1.248,2.155-1.758c0.766-0.509,1.588-0.95,2.439-1.305c0.865-0.355,1.758-0.638,2.666-0.808
	c1.829-0.369,3.715-0.369,5.53,0c0.908,0.17,1.801,0.454,2.652,0.808c0.865,0.355,1.688,0.796,2.453,1.305
	c0.78,0.51,1.503,1.106,2.155,1.758c0.652,0.652,1.248,1.376,1.758,2.155c0.51,0.766,0.95,1.588,1.305,2.44
	c0.355,0.864,0.638,1.758,0.808,2.666c0.184,0.908,0.284,1.843,0.284,2.765c0,3.73-1.517,7.388-4.155,10.024
	c-0.652,0.652-1.376,1.248-2.155,1.758c-0.766,0.51-1.588,0.95-2.453,1.305c-0.851,0.355-1.744,0.624-2.652,0.808
	S330.207,270.18,329.286,270.18z"/>
<g>
</g>
<g>
</g>
<g>
</g>
<g>
</g>
<g>
</g>
<g>
</g>
<g>
</g>
<g>
</g>
<g>
</g>
<g>
</g>
<g>
</g>
<g>
</g>
<g>
</g>
<g>
</g>
<g>
</g>
</svg>
