<?xml version="1.0" encoding="iso-8859-1"?>
<!-- Generator: Adobe Illustrator 19.0.0, SVG Export Plug-In . SVG Version: 6.00 Build 0)  -->
<svg version="1.1" id="Layer_1" xmlns="http://www.w3.org/2000/svg" xmlns:xlink="http://www.w3.org/1999/xlink" x="0px" y="0px"
	 viewBox="0 0 512 512" style="enable-background:new 0 0 512 512;" xml:space="preserve">
<rect x="71.894" y="39.66" style="fill:#FFFFFF;" width="429.907" height="432.681"/>
<path style="fill:#8AE4FF;" d="M286.848,43.005C169.214,43.005,73.852,138.366,73.852,256s95.361,212.995,212.995,212.995
	S499.843,373.634,499.843,256S404.481,43.005,286.848,43.005z M287.051,283.92c-15.42,0-27.92-12.5-27.92-27.92
	s12.5-27.92,27.92-27.92s27.92,12.5,27.92,27.92S302.472,283.92,287.051,283.92z"/>
<path style="fill:#FFFFFF;" d="M287.051,183.582c-39.996,0-72.418,32.423-72.418,72.418c0,39.996,32.423,72.418,72.418,72.418
	s72.419-32.422,72.419-72.418S327.048,183.582,287.051,183.582z M287.051,283.92c-15.42,0-27.92-12.5-27.92-27.92
	s12.5-27.92,27.92-27.92s27.92,12.5,27.92,27.92S302.472,283.92,287.051,283.92z"/>
<rect x="10.199" y="39.66" style="fill:#ABABAB;" width="61.695" height="432.681"/>
<path d="M501.801,482.54c5.632,0,10.199-4.567,10.199-10.199V39.66c0-5.632-4.567-10.199-10.199-10.199H10.199
	C4.566,29.46,0,34.028,0,39.66V472.34c0,5.632,4.566,10.199,10.199,10.199L501.801,482.54L501.801,482.54z M491.602,166.896
	c-11.026-25.32-26.817-48.603-46.933-68.718c-20.97-20.971-45.379-37.25-71.954-48.32h118.887V166.896z M286.848,53.204
	c111.822,0,202.796,90.974,202.796,202.796S398.67,458.796,286.848,458.796c-111.822,0-202.796-90.974-202.796-202.796
	S175.025,53.204,286.848,53.204z M82.093,166.896V49.859h118.886c-26.575,11.07-50.985,27.349-71.954,48.32
	C108.91,118.293,93.12,141.576,82.093,166.896z M20.398,49.859h41.297v412.282H20.398V49.859z M82.093,345.104
	c11.026,25.32,26.817,48.603,46.932,68.717c20.97,20.971,45.379,37.25,71.954,48.32H82.093V345.104z M372.716,462.141
	c26.575-11.07,50.984-27.349,71.954-48.32c20.115-20.115,35.906-43.398,46.933-68.718v117.038H372.716z"/>
<path d="M287.051,294.12c21.019,0,38.12-17.101,38.12-38.12s-17.101-38.12-38.12-38.12s-38.12,17.101-38.12,38.12
	S266.033,294.12,287.051,294.12z M287.051,238.279c9.772,0,17.721,7.949,17.721,17.721s-7.949,17.721-17.721,17.721
	S269.33,265.772,269.33,256S277.28,238.279,287.051,238.279z"/>
<path d="M287.051,338.618c45.556,0,82.618-37.062,82.618-82.618s-37.062-82.618-82.618-82.618S204.434,210.444,204.434,256
	S241.496,338.618,287.051,338.618z M287.051,193.781c34.308,0,62.219,27.911,62.219,62.219s-27.911,62.219-62.219,62.219
	S224.832,290.308,224.832,256S252.744,193.781,287.051,193.781z"/>
<path d="M467.037,277.064c0.22,0.013,0.439,0.02,0.656,0.02c5.338,0,9.827-4.152,10.17-9.554c0.241-3.812,0.363-7.692,0.363-11.531
	c0-5.632-4.567-10.199-10.199-10.199c-5.632,0-10.199,4.567-10.199,10.199c0,3.411-0.108,6.856-0.322,10.24
	C457.148,271.863,461.415,276.708,467.037,277.064z"/>
<path d="M415.279,389.28c2.527,0,5.059-0.934,7.033-2.815c23.244-22.143,40.178-50.073,48.969-80.768
	c1.551-5.416-1.582-11.063-6.996-12.613c-5.421-1.552-11.063,1.583-12.613,6.996c-7.794,27.21-22.811,51.974-43.429,71.617
	c-4.079,3.886-4.235,10.341-0.35,14.42C409.897,388.22,412.584,389.28,415.279,389.28z"/>
<g>
</g>
<g>
</g>
<g>
</g>
<g>
</g>
<g>
</g>
<g>
</g>
<g>
</g>
<g>
</g>
<g>
</g>
<g>
</g>
<g>
</g>
<g>
</g>
<g>
</g>
<g>
</g>
<g>
</g>
</svg>
