<?xml version="1.0" encoding="iso-8859-1"?>
<!-- Generator: Adobe Illustrator 19.0.0, SVG Export Plug-In . SVG Version: 6.00 Build 0)  -->
<svg version="1.1" id="Layer_1" xmlns="http://www.w3.org/2000/svg" xmlns:xlink="http://www.w3.org/1999/xlink" x="0px" y="0px"
	 viewBox="0 0 512 512" style="enable-background:new 0 0 512 512;" xml:space="preserve">
<g>
	<rect x="142.554" y="420.605" style="fill:#E8E8E8;" width="226.891" height="81.196"/>
	<rect x="369.446" y="420.605" style="fill:#E8E8E8;" width="113.446" height="81.196"/>
	<rect x="29.106" y="420.605" style="fill:#E8E8E8;" width="113.446" height="81.196"/>
</g>
<g>
	<rect x="142.554" y="360.552" style="fill:#F07057;" width="226.891" height="60.06"/>
	<rect x="369.446" y="360.552" style="fill:#F07057;" width="113.446" height="60.06"/>
	<rect x="29.106" y="360.552" style="fill:#F07057;" width="113.446" height="60.06"/>
	<rect x="142.554" y="300.489" style="fill:#F07057;" width="226.891" height="60.06"/>
	<rect x="369.446" y="300.489" style="fill:#F07057;" width="113.446" height="60.06"/>
	<rect x="29.106" y="300.489" style="fill:#F07057;" width="113.446" height="60.06"/>
	<rect x="142.554" y="240.426" style="fill:#F07057;" width="226.891" height="60.06"/>
	<rect x="369.446" y="240.426" style="fill:#F07057;" width="113.446" height="60.06"/>
	<rect x="29.106" y="240.426" style="fill:#F07057;" width="113.446" height="60.06"/>
	<rect x="142.554" y="180.373" style="fill:#F07057;" width="226.891" height="60.06"/>
	<rect x="142.554" y="120.31" style="fill:#F07057;" width="226.891" height="60.06"/>
	<rect x="191.49" y="60.247" style="fill:#F07057;" width="129.02" height="60.06"/>
	<rect x="369.446" y="180.373" style="fill:#F07057;" width="113.446" height="60.06"/>
	<rect x="29.106" y="180.373" style="fill:#F07057;" width="113.446" height="60.06"/>
	<rect x="203.158" y="463.982" style="fill:#F07057;" width="105.674" height="37.819"/>
</g>
<path d="M482.893,512c5.633,0,10.199-4.567,10.199-10.199V180.369c0-5.632-4.566-10.199-10.199-10.199H379.646v-49.861
	c0-5.632-4.566-10.199-10.199-10.199h-38.739V60.249c0-5.632-4.566-10.199-10.199-10.199h-54.31v-39.85
	C266.199,4.567,261.633,0,256,0s-10.199,4.567-10.199,10.199v39.85h-54.31c-5.633,0-10.199,4.567-10.199,10.199v49.861h-38.739
	c-5.633,0-10.199,4.567-10.199,10.199v49.861H29.108c-5.633,0-10.199,4.567-10.199,10.199v321.432
	c0,5.632,4.566,10.199,10.199,10.199H482.893z M359.248,190.568v39.663H152.752v-39.663H359.248z M472.693,290.29h-93.047v-39.662
	h93.047V290.29z M472.693,350.35h-93.047v-39.662h93.047V350.35z M39.307,310.688h93.047v39.662H39.307
	C39.307,350.35,39.307,310.688,39.307,310.688z M359.248,290.29H152.752v-39.662h206.495L359.248,290.29L359.248,290.29z
	 M152.752,310.688h206.495v39.662H152.752V310.688z M132.354,290.29H39.307v-39.662h93.047V290.29z M39.307,370.748h93.047v39.662
	H39.307C39.307,410.41,39.307,370.748,39.307,370.748z M152.752,370.748h206.495v39.662H152.752V370.748z M379.646,370.748h93.047
	v39.662h-93.047V370.748z M472.693,230.23h-93.047v-39.663h93.047V230.23z M201.69,70.448h108.62v39.662H201.69V70.448z
	 M152.752,130.508h38.739h129.018h38.739v39.662H152.752V130.508z M39.307,190.568h93.047v39.663H39.307
	C39.307,230.231,39.307,190.568,39.307,190.568z M39.307,430.808h93.047v60.793H39.307
	C39.307,491.602,39.307,430.808,39.307,430.808z M152.752,430.808h206.495v60.793h-40.21v-27.616
	c0-5.632-4.566-10.199-10.199-10.199H203.162c-5.633,0-10.199,4.567-10.199,10.199v27.616h-40.21V430.808z M213.361,491.602v-17.417
	h85.278v17.417H213.361z M472.693,491.602h-93.047v-60.793h93.047V491.602z"/>
<path d="M209.287,383.716h-10.009c-5.633,0-10.199,4.567-10.199,10.199c0,5.632,4.566,10.199,10.199,10.199h10.009
	c5.633,0,10.199-4.567,10.199-10.199C219.486,388.284,214.92,383.716,209.287,383.716z"/>
<path d="M339.416,383.716h-97.875c-5.633,0-10.199,4.567-10.199,10.199c0,5.632,4.566,10.199,10.199,10.199h97.875
	c5.633,0,10.199-4.567,10.199-10.199C349.615,388.284,345.049,383.716,339.416,383.716z"/>
<g>
</g>
<g>
</g>
<g>
</g>
<g>
</g>
<g>
</g>
<g>
</g>
<g>
</g>
<g>
</g>
<g>
</g>
<g>
</g>
<g>
</g>
<g>
</g>
<g>
</g>
<g>
</g>
<g>
</g>
</svg>
