<?xml version="1.0" encoding="iso-8859-1"?>
<!-- Uploaded to: SVG Repo, www.svgrepo.com, Generator: SVG Repo Mixer Tools -->
<svg height="800px" width="800px" version="1.1" id="Layer_1" xmlns="http://www.w3.org/2000/svg" xmlns:xlink="http://www.w3.org/1999/xlink" 
	 viewBox="0 0 512 512" xml:space="preserve">
<path style="fill:#171F23;" d="M428.15,0h-26.5h-26.5c-9.8,0-17.7,7.9-17.7,17.7V53h44.1h44.1V17.7C445.85,7.9,437.95,0,428.15,0z"
	/>
<g>
	<path style="fill:#283238;" d="M375.25,0c-9.8,0-17.7,7.9-17.7,17.7V53h44.1V0H375.25z"/>
	<path style="fill:#283238;" d="M225.15,256H30.95c-9.8,0-17.7-7.9-17.7-17.7V44.1c0-9.8,7.9-17.7,17.7-17.7h194.2
		c9.8,0,17.7,7.9,17.7,17.7v194.2C242.85,248.1,234.95,256,225.15,256"/>
</g>
<path style="fill:#E0E2E3;" d="M242.85,53v185.4c0,9.8-7.9,17.7-17.7,17.7H39.75v114.8c0,19.5,15.8,35.3,35.3,35.3h388.4
	c19.5,0,35.3-15.8,35.3-35.3V88.3c0-19.5-15.8-35.3-35.3-35.3C463.45,53,242.85,53,242.85,53z"/>
<polygon style="fill:#283238;" points="207.45,441.4 331.05,441.4 331.05,406.1 207.45,406.1 "/>
<polygon style="fill:#546A79;" points="242.85,512 295.75,512 295.75,441.4 242.85,441.4 "/>
<g>
	<path style="fill:#283238;" d="M181.05,300.1h-79.4c-4.9,0-8.8-3.9-8.8-8.8s4-8.8,8.8-8.8h79.4c4.9,0,8.8,3.9,8.8,8.8
		S185.85,300.1,181.05,300.1"/>
	<path style="fill:#283238;" d="M181.05,379.6h-79.4c-4.9,0-8.8-3.9-8.8-8.8s4-8.8,8.8-8.8h79.4c4.9,0,8.8,3.9,8.8,8.8
		C189.85,375.6,185.85,379.6,181.05,379.6"/>
	<path style="fill:#283238;" d="M128.05,353.1c-4.9,0-8.8-3.9-8.8-8.8v-26.5c0-4.9,4-8.8,8.8-8.8c4.9,0,8.8,3.9,8.8,8.8v26.5
		C136.85,349.2,132.95,353.1,128.05,353.1"/>
	<path style="fill:#283238;" d="M154.55,353.1c-4.9,0-8.8-3.9-8.8-8.8v-26.5c0-4.9,4-8.8,8.8-8.8s8.8,3.9,8.8,8.8v26.5
		C163.35,349.2,159.45,353.1,154.55,353.1"/>
</g>
<polygon style="fill:#434C6D;" points="48.65,220.7 207.45,220.7 207.45,61.8 48.65,61.8 "/>
<path style="fill:#7383BF;" d="M214.45,227.7H41.65V54.8h172.9v172.9H214.45z M55.65,213.7h144.9V68.8H55.65V213.7z"/>
<path style="fill:#FFFFFF;" d="M172.15,141.2c0,24.4-19.8,44.1-44.1,44.1s-44.1-19.8-44.1-44.1s19.8-44.1,44.1-44.1
	S172.15,116.9,172.15,141.2"/>
<g>
	<polygon style="fill:#283238;" points="233.95,344.3 375.25,344.3 375.25,309 233.95,309 	"/>
	<polygon style="fill:#283238;" points="410.55,344.3 463.45,344.3 463.45,309 410.55,309 	"/>
</g>
<polygon style="fill:#367F49;" points="313.45,203 454.65,203 454.65,97.1 313.45,97.1 "/>
<g>
	<polygon style="fill:#246032;" points="339.95,141.2 357.55,141.2 357.55,97.1 339.95,97.1 	"/>
	<polygon style="fill:#246032;" points="375.25,123.6 392.85,123.6 392.85,97.1 375.25,97.1 	"/>
	<polygon style="fill:#246032;" points="410.55,141.2 428.15,141.2 428.15,97.1 410.55,97.1 	"/>
	<polygon style="fill:#246032;" points="339.95,203 357.55,203 357.55,176.6 339.95,176.6 	"/>
	<polygon style="fill:#246032;" points="375.25,203 392.85,203 392.85,158.9 375.25,158.9 	"/>
	<polygon style="fill:#246032;" points="410.55,203 428.15,203 428.15,176.6 410.55,176.6 	"/>
</g>
</svg>