<?xml version="1.0" encoding="iso-8859-1"?>
<!-- Generator: Adobe Illustrator 19.0.0, SVG Export Plug-In . SVG Version: 6.00 Build 0)  -->
<svg version="1.1" id="Layer_1" xmlns="http://www.w3.org/2000/svg" xmlns:xlink="http://www.w3.org/1999/xlink" x="0px" y="0px"
	 viewBox="0 0 512 512" style="enable-background:new 0 0 512 512;" xml:space="preserve">
<path style="fill:#9BF57D;" d="M446.554,86.141c-1.427-5.71-6.558-9.715-12.444-9.715h-14.176c-5.885,0-11.016,4.006-12.444,9.715
	l-6.12,24.489h51.307L446.554,86.141z"/>
<path style="fill:#8CE16E;" d="M433.146,86.141c0.924-3.694,3.48-6.531,6.704-8.175c-1.759-0.898-3.661-1.54-5.739-1.54h-14.176
	c-5.885,0-11.017,4.006-12.444,9.715l-6.122,24.489h25.653L433.146,86.141z"/>
<path style="fill:#9BF57D;" d="M104.508,86.141c-1.427-5.71-6.558-9.715-12.444-9.715H77.889c-5.885,0-11.016,4.006-12.444,9.715
	l-6.122,24.489h51.307L104.508,86.141z"/>
<path style="fill:#8CE16E;" d="M91.1,86.141c0.924-3.694,3.48-6.531,6.704-8.175c-1.759-0.898-3.661-1.54-5.739-1.54H77.889
	c-5.885,0-11.017,4.006-12.444,9.715l-6.122,24.489h25.653L91.1,86.141z"/>
<path style="fill:#9BF57D;" d="M358.614,76.426H153.386c-4.722,0-8.551,3.829-8.551,8.551v25.653h222.33V84.977
	C367.165,80.255,363.336,76.426,358.614,76.426z"/>
<path style="fill:#E4EAF8;" d="M478.33,110.63H33.67c-4.722,0-8.551,3.829-8.551,8.551V401.37h461.762V119.182
	C486.881,114.459,483.052,110.63,478.33,110.63z"/>
<circle style="fill:#F2F5FC;" cx="256" cy="256" r="92.662"/>
<rect x="25.119" y="375.716" style="fill:#D5DCED;" width="461.762" height="25.653"/>
<path style="fill:#9BF57D;" d="M495.432,435.574H16.568c-4.722,0-8.551-3.829-8.551-8.551v-17.102c0-4.722,3.829-8.551,8.551-8.551
	h478.864c4.722,0,8.551,3.829,8.551,8.551v17.102C503.983,431.745,500.155,435.574,495.432,435.574z"/>
<path d="M337.682,231.041c-4.338,0.886-7.136,5.122-6.25,9.46c1.035,5.062,1.558,10.277,1.558,15.499
	c0,28.216-15.062,53.289-38.448,66.724l2.01-2.817c2.571-3.604,1.733-8.611-1.872-11.182c-3.604-2.571-8.611-1.733-11.182,1.872
	l-17.91,25.113c-1.604,2.25-1.938,5.168-0.88,7.723c1.057,2.554,3.356,4.382,6.082,4.839l30.421,5.095
	c0.448,0.075,0.894,0.111,1.334,0.111c3.845,0,7.241-2.775,7.897-6.693c0.731-4.366-2.216-8.5-6.582-9.231l-2.422-0.405
	c10.383-5.831,19.67-13.631,27.188-23.012c13.154-16.414,20.398-37.06,20.398-58.134c0-6.298-0.634-12.592-1.883-18.709
	C346.255,232.953,342.018,230.153,337.682,231.041z"/>
<path d="M238.225,330.932c-32.613-7.704-56.021-35.162-58.911-68.045l0.869,1.766c1.395,2.834,4.239,4.478,7.198,4.477
	c1.189,0,2.396-0.266,3.535-0.826c3.972-1.956,5.606-6.761,3.651-10.734l-13.625-27.671c-1.221-2.48-3.633-4.156-6.383-4.435
	c-2.75-0.279-5.45,0.879-7.143,3.063L148.512,252.9c-2.714,3.498-2.077,8.534,1.422,11.247c3.498,2.714,8.534,2.077,11.247-1.422
	l1.899-2.449c0.91,19.576,8.03,38.555,20.291,53.857c12.951,16.161,31.122,27.668,51.168,32.404c0.62,0.146,1.239,0.216,1.849,0.216
	c3.632,0,6.924-2.486,7.795-6.175C245.202,336.267,242.534,331.95,238.225,330.932z"/>
<path d="M299.871,193.243c-4.256-1.225-8.697,1.232-9.92,5.488c-1.225,4.254,1.232,8.697,5.488,9.92l29.641,8.529
	c0.73,0.211,1.475,0.312,2.216,0.312c1.953,0,3.868-0.714,5.358-2.053c2.055-1.847,3.015-4.624,2.539-7.346l-5.322-30.382
	c-0.764-4.361-4.917-7.276-9.28-6.514c-4.361,0.764-7.277,4.919-6.514,9.28l0.575,3.28c-16.404-13.376-36.931-20.783-58.652-20.783
	c-28.827,0-55.555,13.04-73.328,35.777c-2.727,3.489-2.11,8.527,1.379,11.253c1.467,1.146,3.206,1.702,4.932,1.702
	c2.383,0,4.741-1.057,6.321-3.079c14.714-18.822,36.837-29.618,60.696-29.618c16.52,0,32.205,5.179,45.177,14.61L299.871,193.243z"
	/>
<path d="M495.432,393.353h-0.534V119.182c0-9.136-7.432-16.568-16.568-16.568h-19.394l-4.604-18.416
	c-2.324-9.296-10.64-15.789-20.221-15.789h-14.176c-9.582,0-17.898,6.492-20.22,15.789l-4.605,18.416h-19.928V84.977
	c0-9.136-7.432-16.568-16.568-16.568H153.386c-9.136,0-16.568,7.432-16.568,16.568v17.637H116.89l-4.605-18.416
	c-2.323-9.296-10.639-15.789-20.22-15.789H77.889c-9.582,0-17.898,6.492-20.22,15.789l-4.604,18.416H33.67
	c-9.136,0-16.568,7.432-16.568,16.568v274.171h-0.534C7.432,393.353,0,400.785,0,409.921v17.102c0,9.136,7.432,16.568,16.568,16.568
	h478.864c9.136,0,16.568-7.432,16.568-16.568v-17.102C512,400.785,504.568,393.353,495.432,393.353z M415.268,88.085
	c0.537-2.145,2.455-3.643,4.667-3.643h14.176c2.212,0,4.13,1.498,4.667,3.643l3.632,14.528h-30.772L415.268,88.085z M152.852,84.977
	c0-0.295,0.239-0.534,0.534-0.534h205.228c0.295,0,0.534,0.239,0.534,0.534v17.637H152.852V84.977z M73.222,88.085
	c0.537-2.145,2.455-3.643,4.667-3.643h14.176c2.212,0,4.13,1.498,4.667,3.643l3.632,14.528H69.59L73.222,88.085z M33.136,119.182
	c0-0.295,0.239-0.534,0.534-0.534h444.66c0.295,0,0.534,0.239,0.534,0.534v274.171H33.136V119.182z M495.967,427.023
	c0,0.295-0.239,0.534-0.534,0.534H16.568c-0.295,0-0.534-0.239-0.534-0.534v-17.102c0-0.295,0.239-0.534,0.534-0.534h478.864
	c0.295,0,0.534,0.239,0.534,0.534V427.023z"/>
<path d="M102.079,162.472H67.875c-4.427,0-8.017,3.589-8.017,8.017s3.589,8.017,8.017,8.017h34.205c4.427,0,8.017-3.589,8.017-8.017
	S106.507,162.472,102.079,162.472z"/>
<path d="M444.125,162.472h-9.086v-9.086c0-4.427-3.589-8.017-8.017-8.017c-4.427,0-8.017,3.589-8.017,8.017v9.086h-9.086
	c-4.427,0-8.017,3.589-8.017,8.017s3.589,8.017,8.017,8.017h9.086v9.086c0,4.427,3.589,8.017,8.017,8.017
	c4.427,0,8.017-3.589,8.017-8.017v-9.086h9.086c4.427,0,8.017-3.589,8.017-8.017S448.553,162.472,444.125,162.472z"/>
<g>
</g>
<g>
</g>
<g>
</g>
<g>
</g>
<g>
</g>
<g>
</g>
<g>
</g>
<g>
</g>
<g>
</g>
<g>
</g>
<g>
</g>
<g>
</g>
<g>
</g>
<g>
</g>
<g>
</g>
</svg>
