<?xml version="1.0" encoding="iso-8859-1"?>
<!-- Generator: Adobe Illustrator 19.0.0, SVG Export Plug-In . SVG Version: 6.00 Build 0)  -->
<svg version="1.1" id="Layer_1" xmlns="http://www.w3.org/2000/svg" xmlns:xlink="http://www.w3.org/1999/xlink" x="0px" y="0px"
	 viewBox="0 0 512 512" style="enable-background:new 0 0 512 512;" xml:space="preserve">
<rect x="472.597" y="169.363" style="fill:#36A9E1;" width="31.506" height="175.318"/>
<rect x="7.892" y="137.849" style="fill:#5EBAE7;" width="464.706" height="236.293"/>
<rect x="39.397" y="169.363" style="fill:#FFFFFF;" width="393.819" height="173.277"/>
<g>
	<polygon style="fill:#D5C9B3;" points="433.22,287.505 425.344,287.505 378.085,334.764 385.962,342.641 433.22,342.641 	"/>
	<polygon style="fill:#D5C9B3;" points="189.049,169.359 39.397,319.012 39.397,248.123 118.162,169.359 	"/>
	<polygon style="fill:#D5C9B3;" points="330.826,169.359 157.544,342.641 86.655,342.641 259.938,169.359 	"/>
	<polygon style="fill:#D5C9B3;" points="433.22,169.359 433.22,216.617 299.32,342.641 228.432,342.641 401.714,169.359 	"/>
</g>
<g>
	<path style="fill:#1D1D1B;" d="M480.494,382.038H0V129.962h480.494V382.038z M15.783,366.255h448.928v-220.51H15.783V366.255z"/>
	<polygon style="fill:#1D1D1B;" points="512,350.533 488.355,350.533 488.355,334.75 496.217,334.75 496.217,177.25 488.355,177.25 
		488.355,161.467 512,161.467 	"/>
	<path style="fill:#1D1D1B;" d="M31.505,161.467v189.066h409.606V161.467H31.505z M425.329,276.359l-58.39,58.39h-48.566
		l106.955-106.955V276.359z M425.329,205.471L296.05,334.75h-48.565l157.5-157.5h20.344V205.471z M334.097,177.25h48.565
		l-157.5,157.5h-48.566L334.097,177.25z M154.274,334.75h-48.565l157.5-157.5h48.565L154.274,334.75z M47.288,251.393l74.144-74.143
		h48.565L47.288,299.959V251.393z M99.109,177.25l-51.821,51.821V177.25H99.109z M47.288,322.281L192.32,177.25h48.565
		L83.386,334.75H47.288V322.281z M389.26,334.75l36.067-36.067v36.067L389.26,334.75L389.26,334.75z"/>
</g>
<g>
</g>
<g>
</g>
<g>
</g>
<g>
</g>
<g>
</g>
<g>
</g>
<g>
</g>
<g>
</g>
<g>
</g>
<g>
</g>
<g>
</g>
<g>
</g>
<g>
</g>
<g>
</g>
<g>
</g>
</svg>
