<?xml version="1.0" encoding="iso-8859-1"?>
<!-- Generator: Adobe Illustrator 19.0.0, SVG Export Plug-In . SVG Version: 6.00 Build 0)  -->
<svg version="1.1" id="Layer_1" xmlns="http://www.w3.org/2000/svg" xmlns:xlink="http://www.w3.org/1999/xlink" x="0px" y="0px"
	 viewBox="0 0 460 460" style="enable-background:new 0 0 460 460;" xml:space="preserve">
<g id="XMLID_1577_">
	<g id="Black_cartridge">
		<path id="XMLID_683_" style="fill:#9CA09E;" d="M210,20v20v150c0,11.046-8.547,20-19.091,20H38.182
			c-10.544,0-19.091-8.954-19.091-20v-60c0-1.326-0.503-2.598-1.398-3.536L2.796,110.858C1.006,108.982,0,106.439,0,103.787V60
			c0-11.046,8.547-20,19.091-20l0,0H20V20C20,8.954,28.954,0,40,0h150C201.046,0,210,8.954,210,20z"/>
		<path id="XMLID_1400_" style="fill:#3C3B42;" d="M40,0h150c11.046,0,20,8.954,20,20v20H20V20C20,8.954,28.954,0,40,0z"/>
		<path id="XMLID_1401_" style="fill:#F2F2F2;" d="M160,170H70c-5.523,0-10-4.477-10-10V90c0-5.523,4.477-10,10-10h90
			c5.523,0,10,4.477,10,10v70C170,165.523,165.523,170,160,170z"/>
		<path id="XMLID_532_" style="fill:#3C3B42;" d="M160,125v30c0,2.761-2.239,5-5,5H75c-2.761,0-5-2.239-5-5v-30c0-2.761,2.239-5,5-5
			h80C157.761,120,160,122.239,160,125z"/>
		<path id="XMLID_533_" style="fill:#D2D6D5;" d="M160,95L160,95c0,2.761-2.239,5-5,5h-40c-2.761,0-5-2.239-5-5l0,0
			c0-2.761,2.239-5,5-5h40C157.761,90,160,92.239,160,95z"/>
		<path id="XMLID_531_" style="fill:#3C3B42;" d="M90,100c0,5.523-4.477,10-10,10s-10-4.477-10-10s4.477-10,10-10S90,94.477,90,100z
			"/>
	</g>
	<g id="Yellow_cartridge">
		<path id="XMLID_1418_" style="fill:#9CA09E;" d="M460,270v20v150c0,11.046-8.547,20-19.091,20H288.182
			c-10.544,0-19.091-8.954-19.091-20v-60c0-1.326-0.503-2.598-1.398-3.536l-14.897-15.607c-1.79-1.875-2.796-4.419-2.796-7.071V310
			c0-11.046,8.547-20,19.091-20l0,0H270v-20c0-11.046,8.954-20,20-20h150C451.046,250,460,258.954,460,270z"/>
		<path id="XMLID_1419_" style="fill:#F7C843;" d="M290,250h150c11.046,0,20,8.954,20,20v20H270v-20
			C270,258.954,278.954,250,290,250z"/>
		<path id="XMLID_1424_" style="fill:#F2F2F2;" d="M410,420h-90c-5.523,0-10-4.477-10-10v-70c0-5.523,4.477-10,10-10h90
			c5.523,0,10,4.477,10,10v70C420,415.523,415.523,420,410,420z"/>
		<path id="XMLID_1426_" style="fill:#F7C843;" d="M410,375v30c0,2.761-2.239,5-5,5h-80c-2.761,0-5-2.239-5-5v-30
			c0-2.761,2.239-5,5-5h80C407.761,370,410,372.239,410,375z"/>
		<path id="XMLID_1425_" style="fill:#D2D6D5;" d="M410,345L410,345c0,2.761-2.239,5-5,5h-40c-2.761,0-5-2.239-5-5l0,0
			c0-2.761,2.239-5,5-5h40C407.761,340,410,342.239,410,345z"/>
		<path id="XMLID_1420_" style="fill:#F7C843;" d="M340,350c0,5.523-4.477,10-10,10s-10-4.477-10-10s4.477-10,10-10
			S340,344.477,340,350z"/>
	</g>
	<g id="Magenta_cartridge">
		<path id="XMLID_738_" style="fill:#9CA09E;" d="M210,270v20v150c0,11.046-8.547,20-19.091,20H38.182
			c-10.544,0-19.091-8.954-19.091-20v-60c0-1.326-0.503-2.598-1.398-3.536L2.796,360.858C1.006,358.982,0,356.439,0,353.787V310
			c0-11.046,8.547-20,19.091-20l0,0H20v-20c0-11.046,8.954-20,20-20h150C201.046,250,210,258.954,210,270z"/>
		<path id="XMLID_714_" style="fill:#E2396D;" d="M40,250h150c11.046,0,20,8.954,20,20v20H20v-20C20,258.954,28.954,250,40,250z"/>
		<path id="XMLID_1417_" style="fill:#F2F2F2;" d="M160,420H70c-5.523,0-10-4.477-10-10v-70c0-5.523,4.477-10,10-10h90
			c5.523,0,10,4.477,10,10v70C170,415.523,165.523,420,160,420z"/>
		<path id="XMLID_1402_" style="fill:#E2396D;" d="M160,375v30c0,2.761-2.239,5-5,5H75c-2.761,0-5-2.239-5-5v-30
			c0-2.761,2.239-5,5-5h80C157.761,370,160,372.239,160,375z"/>
		<path id="XMLID_717_" style="fill:#D2D6D5;" d="M160,345L160,345c0,2.761-2.239,5-5,5h-40c-2.761,0-5-2.239-5-5l0,0
			c0-2.761,2.239-5,5-5h40C157.761,340,160,342.239,160,345z"/>
		<path id="XMLID_718_" style="fill:#E2396D;" d="M90,350c0,5.523-4.477,10-10,10s-10-4.477-10-10s4.477-10,10-10S90,344.477,90,350
			z"/>
	</g>
	<g id="Cyan_cartridge">
		<path id="XMLID_716_" style="fill:#9CA09E;" d="M460,20v20v150c0,11.046-8.547,20-19.091,20H288.182
			c-10.544,0-19.091-8.954-19.091-20v-60c0-1.326-0.503-2.598-1.398-3.536l-14.897-15.607c-1.79-1.875-2.796-4.419-2.796-7.071V60
			c0-11.046,8.547-20,19.091-20l0,0H270V20c0-11.046,8.954-20,20-20h150C451.046,0,460,8.954,460,20z"/>
		<path id="XMLID_534_" style="fill:#7FA3BA;" d="M290,0h150c11.046,0,20,8.954,20,20v20H270V20C270,8.954,278.954,0,290,0z"/>
		<path id="XMLID_713_" style="fill:#F2F2F2;" d="M410,170h-90c-5.523,0-10-4.477-10-10V90c0-5.523,4.477-10,10-10h90
			c5.523,0,10,4.477,10,10v70C420,165.523,415.523,170,410,170z"/>
		<path id="XMLID_677_" style="fill:#7FA3BA;" d="M410,125v30c0,2.761-2.239,5-5,5h-80c-2.761,0-5-2.239-5-5v-30
			c0-2.761,2.239-5,5-5h80C407.761,120,410,122.239,410,125z"/>
		<path id="XMLID_712_" style="fill:#D2D6D5;" d="M410,95L410,95c0,2.761-2.239,5-5,5h-40c-2.761,0-5-2.239-5-5l0,0
			c0-2.761,2.239-5,5-5h40C407.761,90,410,92.239,410,95z"/>
		<path id="XMLID_536_" style="fill:#7FA3BA;" d="M340,100c0,5.523-4.477,10-10,10s-10-4.477-10-10s4.477-10,10-10
			S340,94.477,340,100z"/>
	</g>
</g>
<g>
</g>
<g>
</g>
<g>
</g>
<g>
</g>
<g>
</g>
<g>
</g>
<g>
</g>
<g>
</g>
<g>
</g>
<g>
</g>
<g>
</g>
<g>
</g>
<g>
</g>
<g>
</g>
<g>
</g>
</svg>
