<?xml version="1.0" encoding="iso-8859-1"?>
<!-- Generator: Adobe Illustrator 18.0.0, SVG Export Plug-In . SVG Version: 6.00 Build 0)  -->
<!DOCTYPE svg PUBLIC "-//W3C//DTD SVG 1.1//EN" "http://www.w3.org/Graphics/SVG/1.1/DTD/svg11.dtd">
<svg version="1.1" id="Capa_1" xmlns="http://www.w3.org/2000/svg" xmlns:xlink="http://www.w3.org/1999/xlink" x="0px" y="0px"
	 viewBox="0 0 405.5 405.5" style="enable-background:new 0 0 405.5 405.5;" xml:space="preserve">
<g>
	<g id="XMLID_17_">
		<g>
			<path style="fill:#4D4D4D;" d="M332.753,186.979c39.97,0,72.5,32.52,72.5,72.5c0,39.97-32.53,72.5-72.5,72.5
				c-28.47,0-53.15-16.5-65-40.44c-11.86,23.94-36.53,40.44-65,40.44s-53.15-16.5-65-40.44c-11.86,23.94-36.54,40.44-65,40.44
				c-39.98,0-72.5-32.53-72.5-72.5c0-39.98,32.52-72.5,72.5-72.5c1.8,0,3.59,0.09,5.37,0.22c-8.11-11.71-12.87-25.89-12.87-41.17
				c0-39.98,32.52-72.5,72.5-72.5c28.47,0,53.14,16.5,65,40.43c11.85-23.93,36.53-40.43,65-40.43c39.97,0,72.5,32.52,72.5,72.5
				c0,15.28-4.77,29.46-12.87,41.17C329.153,187.069,330.943,186.979,332.753,186.979z M390.253,259.479
				c0-31.71-25.8-57.5-57.5-57.5c-31.71,0-57.5,25.79-57.5,57.5c0,31.7,25.79,57.5,57.5,57.5
				C364.453,316.979,390.253,291.179,390.253,259.479z M325.253,146.029c0-31.71-25.8-57.5-57.5-57.5c-31.71,0-57.5,25.79-57.5,57.5
				c0,31.7,25.79,57.5,57.5,57.5C299.453,203.529,325.253,177.729,325.253,146.029z M273.123,218.309
				c-1.78,0.13-3.56,0.22-5.37,0.22s-3.6-0.09-5.37-0.22c2,2.89,3.8,5.93,5.37,9.1C269.323,224.239,271.123,221.199,273.123,218.309
				z M260.253,259.479c0-31.71-25.8-57.5-57.5-57.5c-31.71,0-57.5,25.79-57.5,57.5c0,31.7,25.79,57.5,57.5,57.5
				C234.453,316.979,260.253,291.179,260.253,259.479z M202.753,186.979c1.8,0,3.59,0.09,5.37,0.22c-2-2.89-3.8-5.94-5.37-9.11
				c-1.58,3.17-3.37,6.22-5.37,9.11C199.153,187.069,200.943,186.979,202.753,186.979z M195.253,146.029
				c0-31.71-25.8-57.5-57.5-57.5c-31.71,0-57.5,25.79-57.5,57.5c0,31.7,25.79,57.5,57.5,57.5
				C169.453,203.529,195.253,177.729,195.253,146.029z M143.123,218.309c-1.78,0.13-3.57,0.22-5.37,0.22c-1.81,0-3.6-0.09-5.37-0.22
				c2,2.89,3.79,5.93,5.37,9.1C139.323,224.239,141.123,221.199,143.123,218.309z M130.253,259.479c0-31.71-25.8-57.5-57.5-57.5
				c-31.71,0-57.5,25.79-57.5,57.5c0,31.7,25.79,57.5,57.5,57.5C104.453,316.979,130.253,291.179,130.253,259.479z"/>
			<path style="fill:#4D4D4D;" d="M380.253,259.479c0,4.14-3.36,7.5-7.5,7.5c-4.15,0-7.5-3.36-7.5-7.5c0-17.92-14.58-32.5-32.5-32.5
				c-4.15,0-7.5-3.36-7.5-7.5c0-4.15,3.35-7.5,7.5-7.5C358.943,211.979,380.253,233.279,380.253,259.479z"/>
			<path style="fill:#999999;" d="M332.753,201.979c31.7,0,57.5,25.79,57.5,57.5c0,31.7-25.8,57.5-57.5,57.5
				c-31.71,0-57.5-25.8-57.5-57.5C275.253,227.769,301.043,201.979,332.753,201.979z M372.753,266.979c4.14,0,7.5-3.36,7.5-7.5
				c0-26.2-21.31-47.5-47.5-47.5c-4.15,0-7.5,3.35-7.5,7.5c0,4.14,3.35,7.5,7.5,7.5c17.92,0,32.5,14.58,32.5,32.5
				C365.253,263.619,368.603,266.979,372.753,266.979z"/>
			<path style="fill:#4D4D4D;" d="M315.253,146.029c0,4.14-3.36,7.5-7.5,7.5c-4.15,0-7.5-3.36-7.5-7.5c0-9.5-4.16-18.5-11.4-24.7
				c-3.15-2.69-3.51-7.43-0.82-10.57c2.69-3.15,7.43-3.52,10.58-0.82C309.183,118.989,315.253,132.149,315.253,146.029z"/>
			<path style="fill:#B3B3B3;" d="M267.753,88.529c31.7,0,57.5,25.79,57.5,57.5c0,31.7-25.8,57.5-57.5,57.5
				c-31.71,0-57.5-25.8-57.5-57.5C210.253,114.319,236.043,88.529,267.753,88.529z M307.753,153.529c4.14,0,7.5-3.36,7.5-7.5
				c0-13.88-6.07-27.04-16.64-36.09c-3.15-2.7-7.89-2.33-10.58,0.82c-2.69,3.14-2.33,7.88,0.82,10.57c7.24,6.2,11.4,15.2,11.4,24.7
				C300.253,150.169,303.603,153.529,307.753,153.529z M282.123,107.939c0.72-4.08-2-7.97-6.08-8.69c-2.72-0.48-5.51-0.72-8.29-0.72
				c-4.15,0-7.5,3.35-7.5,7.5c0,4.14,3.35,7.5,7.5,7.5c1.9,0,3.82,0.16,5.68,0.49c0.44,0.08,0.88,0.12,1.31,0.12
				C278.313,114.139,281.473,111.579,282.123,107.939z"/>
			<path style="fill:#4D4D4D;" d="M276.043,99.249c4.08,0.72,6.8,4.61,6.08,8.69c-0.65,3.64-3.81,6.2-7.38,6.2
				c-0.43,0-0.87-0.04-1.31-0.12c-1.86-0.33-3.78-0.49-5.68-0.49c-4.15,0-7.5-3.36-7.5-7.5c0-4.15,3.35-7.5,7.5-7.5
				C270.533,98.529,273.323,98.769,276.043,99.249z"/>
			<path style="fill:#4D4D4D;" d="M250.253,259.479c0,4.14-3.36,7.5-7.5,7.5c-4.15,0-7.5-3.36-7.5-7.5c0-17.92-14.58-32.5-32.5-32.5
				c-4.15,0-7.5-3.36-7.5-7.5c0-4.15,3.35-7.5,7.5-7.5C228.943,211.979,250.253,233.279,250.253,259.479z"/>
			<path style="fill:#999999;" d="M202.753,201.979c31.7,0,57.5,25.79,57.5,57.5c0,31.7-25.8,57.5-57.5,57.5
				c-31.71,0-57.5-25.8-57.5-57.5C145.253,227.769,171.043,201.979,202.753,201.979z M242.753,266.979c4.14,0,7.5-3.36,7.5-7.5
				c0-26.2-21.31-47.5-47.5-47.5c-4.15,0-7.5,3.35-7.5,7.5c0,4.14,3.35,7.5,7.5,7.5c17.92,0,32.5,14.58,32.5,32.5
				C235.253,263.619,238.603,266.979,242.753,266.979z"/>
			<path style="fill:#4D4D4D;" d="M185.253,146.029c0,4.14-3.36,7.5-7.5,7.5c-4.15,0-7.5-3.36-7.5-7.5c0-17.92-14.58-32.5-32.5-32.5
				c-4.15,0-7.5-3.36-7.5-7.5c0-4.15,3.35-7.5,7.5-7.5C163.943,98.529,185.253,119.829,185.253,146.029z"/>
			<path style="fill:#B3B3B3;" d="M137.753,88.529c31.7,0,57.5,25.79,57.5,57.5c0,31.7-25.8,57.5-57.5,57.5
				c-31.71,0-57.5-25.8-57.5-57.5C80.253,114.319,106.043,88.529,137.753,88.529z M177.753,153.529c4.14,0,7.5-3.36,7.5-7.5
				c0-26.2-21.31-47.5-47.5-47.5c-4.15,0-7.5,3.35-7.5,7.5c0,4.14,3.35,7.5,7.5,7.5c17.92,0,32.5,14.58,32.5,32.5
				C170.253,150.169,173.603,153.529,177.753,153.529z"/>
			<path style="fill:#4D4D4D;" d="M120.253,259.479c0,4.14-3.36,7.5-7.5,7.5c-4.15,0-7.5-3.36-7.5-7.5c0-17.92-14.58-32.5-32.5-32.5
				c-4.15,0-7.5-3.36-7.5-7.5c0-4.15,3.35-7.5,7.5-7.5C98.943,211.979,120.253,233.279,120.253,259.479z"/>
			<path style="fill:#999999;" d="M72.753,201.979c31.7,0,57.5,25.79,57.5,57.5c0,31.7-25.8,57.5-57.5,57.5
				c-31.71,0-57.5-25.8-57.5-57.5C15.253,227.769,41.043,201.979,72.753,201.979z M112.753,266.979c4.14,0,7.5-3.36,7.5-7.5
				c0-26.2-21.31-47.5-47.5-47.5c-4.15,0-7.5,3.35-7.5,7.5c0,4.14,3.35,7.5,7.5,7.5c17.92,0,32.5,14.58,32.5,32.5
				C105.253,263.619,108.603,266.979,112.753,266.979z"/>
		</g>
		<g>
		</g>
	</g>
</g>
<g>
</g>
<g>
</g>
<g>
</g>
<g>
</g>
<g>
</g>
<g>
</g>
<g>
</g>
<g>
</g>
<g>
</g>
<g>
</g>
<g>
</g>
<g>
</g>
<g>
</g>
<g>
</g>
<g>
</g>
</svg>
