<?xml version="1.0" encoding="iso-8859-1"?>
<!-- Generator: Adobe Illustrator 19.0.0, SVG Export Plug-In . SVG Version: 6.00 Build 0)  -->
<svg version="1.1" id="Layer_1" xmlns="http://www.w3.org/2000/svg" xmlns:xlink="http://www.w3.org/1999/xlink" x="0px" y="0px"
	 viewBox="0 0 503.467 503.467" style="enable-background:new 0 0 503.467 503.467;" xml:space="preserve">
<g transform="translate(1 1)">
	<path style="fill:#00AEEF;" d="M105.667,114.2v34.133c0,4.267-4.267,8.533-8.533,8.533H63c-4.267,0-8.533-4.267-8.533-8.533V114.2
		c0-4.267,4.267-8.533,8.533-8.533h34.133C101.4,105.667,105.667,109.933,105.667,114.2"/>
	<path style="fill:#ECF4F7;" d="M498.2,37.4v426.667c0,17.067-17.067,34.133-34.133,34.133H37.4
		c-17.067,0-34.133-17.067-34.133-34.133V37.4c0-17.067,17.067-34.133,34.133-34.133h426.667C481.133,3.267,498.2,20.333,498.2,37.4
		L498.2,37.4z"/>
	<circle style="fill:#AAB1BA;" cx="336.067" cy="336.067" r="93.867"/>
	<path style="fill:#7EE1E6;" d="M208.067,114.2v34.133c0,4.267-3.413,8.533-8.533,8.533H165.4c-4.267,0-8.533-4.267-8.533-8.533
		V114.2c0-4.267,4.267-8.533,8.533-8.533h34.133C204.653,105.667,208.067,109.933,208.067,114.2z M105.667,114.2v34.133
		c0,4.267-4.267,8.533-8.533,8.533H63c-4.267,0-8.533-4.267-8.533-8.533V114.2c0-4.267,4.267-8.533,8.533-8.533h34.133
		C101.4,105.667,105.667,109.933,105.667,114.2z"/>
	<path style="fill:#FF7474;" d="M412.867,131.267v17.067c0,4.267-3.413,8.533-8.533,8.533H395.8h-34.133h-34.133H293.4h-8.533
		c-5.12,0-8.533-4.267-8.533-8.533v-17.067V114.2c0-4.267,3.413-8.533,8.533-8.533h8.533h34.133h34.133H395.8h8.533
		c5.12,0,8.533,4.267,8.533,8.533V131.267z"/>
</g>
<path style="fill:#51565F;" d="M465.067,503.467H38.4c-19.627,0-38.4-18.773-38.4-38.4c0-2.56,1.707-4.267,4.267-4.267
	s4.267,1.707,4.267,4.267c0,14.507,15.36,29.867,29.867,29.867h426.667c14.507,0,29.867-15.36,29.867-29.867V38.4
	c0-14.507-15.36-29.867-29.867-29.867H38.4c-14.507,0-29.867,15.36-29.867,29.867v392.533c0,2.56-1.707,4.267-4.267,4.267
	S0,433.493,0,430.933V38.4C0,18.773,18.773,0,38.4,0h426.667c19.627,0,38.4,18.773,38.4,38.4v426.667
	C503.467,484.693,484.693,503.467,465.067,503.467z M337.067,435.2c-42.667,0-80.213-27.307-93.013-67.413
	c-0.853-2.56,0.853-4.267,2.56-5.12c2.56-0.853,4.267,0.853,5.12,2.56c11.093,33.28,39.253,56.32,73.387,60.587
	c-7.68-8.533-17.92-23.893-17.92-46.08c0-28.16,16.213-40.107,23.893-44.373c-3.413-5.973-13.653-19.627-36.693-19.627
	c-31.573,0-47.787,23.893-47.787,23.893c-0.853,1.707-3.413,2.56-5.12,1.707c-1.707-0.853-3.413-2.56-3.413-4.267
	c0-42.667,27.307-80.213,67.413-93.013c2.56-0.853,4.267,0.853,5.12,2.56s-0.853,4.267-2.56,5.12
	c-33.28,11.093-56.32,39.253-60.587,73.387c8.533-7.68,23.893-17.92,46.08-17.92c28.16,0,40.107,16.213,44.373,23.893
	c5.973-3.413,19.627-13.653,19.627-36.693c0-31.573-23.893-47.787-23.893-47.787c-1.707-0.853-2.56-3.413-1.707-5.12
	s2.56-3.413,4.267-3.413c42.667,0,80.213,27.307,93.013,67.413c0.853,2.56-0.853,4.267-2.56,5.12c-2.56,0.853-4.267-0.853-5.12-2.56
	c-11.093-33.28-39.253-56.32-73.387-60.587c7.68,8.533,17.92,23.893,17.92,46.08c0,28.16-16.213,40.107-23.893,44.373
	c3.413,5.973,13.653,19.627,36.693,19.627c31.573,0,47.787-23.893,47.787-23.893c0.853-1.707,2.56-2.56,5.12-1.707
	c1.707,0.853,3.413,2.56,3.413,4.267c0,42.667-27.307,80.213-67.413,93.013c-2.56,0.853-4.267-0.853-5.12-2.56
	c-0.853-2.56,0.853-4.267,2.56-5.12c33.28-11.093,56.32-39.253,60.587-73.387c-8.533,7.68-23.893,17.92-46.08,17.92
	c-28.16,0-40.107-16.213-44.373-23.893c-5.973,3.413-19.627,13.653-19.627,36.693c0,31.573,23.893,47.787,23.893,47.787
	c1.707,0.853,2.56,2.56,1.707,5.12C340.48,434.347,338.773,435.2,337.067,435.2z M174.933,418.133c-2.56,0-4.267-1.707-4.267-4.267
	v-153.6c0-2.56,1.707-4.267,4.267-4.267c2.56,0,4.267,1.707,4.267,4.267v153.6C179.2,416.427,177.493,418.133,174.933,418.133z
	 M140.8,418.133c-2.56,0-4.267-1.707-4.267-4.267v-153.6c0-2.56,1.707-4.267,4.267-4.267c2.56,0,4.267,1.707,4.267,4.267v153.6
	C145.067,416.427,143.36,418.133,140.8,418.133z M89.6,418.133c-2.56,0-4.267-1.707-4.267-4.267v-153.6
	c0-2.56,1.707-4.267,4.267-4.267c2.56,0,4.267,1.707,4.267,4.267v29.867h12.8c2.56,0,4.267,1.707,4.267,4.267
	c0,2.56-1.707,4.267-4.267,4.267h-12.8v25.6h12.8c2.56,0,4.267,1.707,4.267,4.267c0,2.56-1.707,4.267-4.267,4.267h-12.8v25.6h12.8
	c2.56,0,4.267,1.707,4.267,4.267s-1.707,4.267-4.267,4.267h-12.8v25.6h12.8c2.56,0,4.267,1.707,4.267,4.267
	s-1.707,4.267-4.267,4.267h-12.8v12.8C93.867,416.427,92.16,418.133,89.6,418.133z M209.067,213.333h-153.6
	c-2.56,0-4.267-1.707-4.267-4.267c0-2.56,1.707-4.267,4.267-4.267h153.6c2.56,0,4.267,1.707,4.267,4.267
	C213.333,211.627,211.627,213.333,209.067,213.333z M396.8,179.2c-2.56,0-4.267-1.707-4.267-4.267v-12.8h-25.6v12.8
	c0,2.56-1.707,4.267-4.267,4.267s-4.267-1.707-4.267-4.267v-12.8h-25.6v12.8c0,2.56-1.707,4.267-4.267,4.267
	s-4.267-1.707-4.267-4.267v-12.8h-25.6v12.8c0,2.56-1.707,4.267-4.267,4.267s-4.267-1.707-4.267-4.267v-12.8h-4.267
	c-6.827,0-12.8-5.973-12.8-12.8v-12.8h-12.8c-2.56,0-4.267-1.707-4.267-4.267c0-2.56,1.707-4.267,4.267-4.267h12.8v-12.8
	c0-6.827,5.973-12.8,12.8-12.8h4.267V89.6c0-2.56,1.707-4.267,4.267-4.267s4.267,1.707,4.267,4.267v12.8h25.6V89.6
	c0-2.56,1.707-4.267,4.267-4.267S332.8,87.04,332.8,89.6v12.8h25.6V89.6c0-2.56,1.707-4.267,4.267-4.267s4.267,1.707,4.267,4.267
	v12.8h25.6V89.6c0-2.56,1.707-4.267,4.267-4.267s4.267,1.707,4.267,4.267v12.8h4.267c6.827,0,12.8,5.973,12.8,12.8V128h12.8
	c2.56,0,4.267,1.707,4.267,4.267c0,2.56-1.707,4.267-4.267,4.267h-12.8v12.8c0,6.827-5.973,12.8-12.8,12.8h-4.267v12.8
	C401.067,177.493,399.36,179.2,396.8,179.2z M281.6,132.267v17.067c0,2.56,1.707,4.267,4.267,4.267h119.467
	c2.56,0,4.267-1.707,4.267-4.267V115.2c0-2.56-1.707-4.267-4.267-4.267H285.867c-2.56,0-4.267,1.707-4.267,4.267V132.267z
	 M200.533,162.133H166.4c-6.827,0-12.8-5.973-12.8-12.8V115.2c0-6.827,5.973-12.8,12.8-12.8h34.133c6.827,0,12.8,5.973,12.8,12.8
	v34.133C213.333,156.16,207.36,162.133,200.533,162.133z M166.4,110.933c-2.56,0-4.267,1.707-4.267,4.267v34.133
	c0,2.56,1.707,4.267,4.267,4.267h34.133c2.56,0,4.267-1.707,4.267-4.267V115.2c0-2.56-1.707-4.267-4.267-4.267H166.4z
	 M98.133,162.133H64c-6.827,0-12.8-5.973-12.8-12.8V115.2c0-6.827,5.973-12.8,12.8-12.8h34.133c6.827,0,12.8,5.973,12.8,12.8v34.133
	C110.933,156.16,104.96,162.133,98.133,162.133z M64,110.933c-2.56,0-4.267,1.707-4.267,4.267v34.133
	c0,2.56,1.707,4.267,4.267,4.267h34.133c2.56,0,4.267-1.707,4.267-4.267V115.2c0-2.56-1.707-4.267-4.267-4.267H64z"/>
<g>
</g>
<g>
</g>
<g>
</g>
<g>
</g>
<g>
</g>
<g>
</g>
<g>
</g>
<g>
</g>
<g>
</g>
<g>
</g>
<g>
</g>
<g>
</g>
<g>
</g>
<g>
</g>
<g>
</g>
</svg>
