<?xml version="1.0" encoding="iso-8859-1"?>
<!-- Generator: Adobe Illustrator 19.0.0, SVG Export Plug-In . SVG Version: 6.00 Build 0)  -->
<svg version="1.1" id="Layer_1" xmlns="http://www.w3.org/2000/svg" xmlns:xlink="http://www.w3.org/1999/xlink" x="0px" y="0px"
	 viewBox="0 0 459.996 459.996" style="enable-background:new 0 0 459.996 459.996;" xml:space="preserve">
<g id="XMLID_1603_">
	<g id="Bottles">
		<path id="XMLID_1339_" style="fill:#D2D6D5;" d="M439.998,145.863v234.124c0,16.569-13.431,30-30,30h-80
			c-7.685,0-14.692-2.893-20-7.645v27.654c0,16.569-13.431,30-30,30h-100c-16.569,0-30-13.431-30-30v-27.655
			c-5.308,4.752-12.315,7.645-20,7.645h-80c-16.569,0-30-13.431-30-30V145.863c0-16.568,13.431-30,30-30h5v-45.67
			c0-5.523,4.477-10,10-10h7.89l7.123-51.282c0.71-5.113,4.967-8.91,9.987-8.91s9.277,3.797,9.987,8.91l7.123,51.283h7.89
			c5.523,0,10,4.477,10,10v45.669h5c14.029,0,25.806,9.631,29.087,22.641c5.404-5.257,12.778-8.5,20.913-8.5h10v-50
			c0-5.523,4.477-10,10-10h10l8.586-60.097c0.812-5.68,5.676-9.899,11.414-9.899s10.603,4.219,11.414,9.899l8.586,60.097h10
			c5.523,0,10,4.477,10,10v50h10c8.135,0,15.509,3.243,20.913,8.5c3.282-13.01,15.058-22.641,29.087-22.641h5v-45.67
			c0-5.523,4.477-10,10-10h7.695l7.123-51.283c0.71-5.112,4.967-8.91,9.987-8.91s9.277,3.797,9.987,8.91l7.123,51.283h8.085
			c5.523,0,10,4.477,10,10v45.669h5C426.567,115.863,439.998,129.294,439.998,145.863z"/>
		<path id="XMLID_244_" style="fill:#9CA09E;" d="M199.998,70.003h60c5.523,0,10,4.477,10,10v50h-80v-50
			C189.998,74.48,194.476,70.003,199.998,70.003z"/>
		<path id="XMLID_446_" style="fill:#9CA09E;" d="M404.998,70.193v45.669h-70V70.193c0-5.523,4.477-10,10-10h50
			C400.521,60.193,404.998,64.67,404.998,70.193z"/>
		<path id="XMLID_450_" style="fill:#9CA09E;" d="M124.998,70.193v45.669h-70V70.193c0-5.523,4.477-10,10-10h50
			C120.521,60.193,124.998,64.67,124.998,70.193z"/>
		<path id="XMLID_474_" style="fill:#AAAFAD;" d="M107.498,130.193h-35v-70h35V130.193z"/>
		<path id="XMLID_489_" style="fill:#AAAFAD;" d="M387.498,130.193h-35v-70h35V130.193z"/>
		<path id="XMLID_452_" style="fill:#AAAFAD;" d="M249.998,140.003h-40v-70h40V140.003z"/>
		<path id="XMLID_1836_" style="fill:#E0E0E0;" d="M229.998,459.996L229.998,459.996c-22.091,0-40-17.909-40-40V130.003h80v289.993
			C269.998,442.087,252.09,459.996,229.998,459.996z"/>
		<path id="XMLID_761_" style="fill:#AAAFAD;" d="M369.998,115.863v294.124h-41.765c-6.953,0-13.315-2.675-18.235-7.104v-242.88
			c0-8.456-3.504-16.089-9.132-21.542c3.102-12.989,14.178-22.598,27.367-22.598h4.706
			C332.939,115.863,369.998,115.863,369.998,115.863z"/>
		<path id="XMLID_9_" style="fill:#AAAFAD;" d="M149.998,402.341c-5.308,4.752-12.315,7.645-20,7.645v0.015h-40V115.863h35h5
			c14.029,0,25.806,9.631,29.088,22.641c-5.603,5.45-9.088,13.066-9.088,21.5V402.341z"/>
		<path id="XMLID_506_" style="fill:#E0E0E0;" d="M92.498,409.987h-5c-17.949,0-32.5-14.551-32.5-32.5V115.863h70v261.624
			C124.998,395.436,110.448,409.987,92.498,409.987z"/>
		<path id="XMLID_496_" style="fill:#E0E0E0;" d="M334.998,377.487V115.863h70v261.624c0,17.949-14.551,32.5-32.5,32.5h-5
			C349.549,409.987,334.998,395.436,334.998,377.487z"/>
	</g>
	<g id="Black_label">
		<path id="XMLID_1834_" style="fill:#3C3B42;" d="M439.998,300.001l-130,10v49.997h-160v-49.997l-130-10v-90l130-10v20h160v-20
			l130,10V300.001z"/>
		<path id="XMLID_1832_" style="fill:#515056;" d="M269.998,359.998h-80V220.001h80V359.998z"/>
		<path id="XMLID_1793_" style="fill:#3C3B42;" d="M244.999,299.999h-30c-2.761,0-5-2.239-5-5l0,0c0-2.761,2.239-5,5-5h30
			c2.761,0,5,2.239,5,5l0,0C249.998,297.761,247.76,299.999,244.999,299.999z"/>
		<path id="XMLID_1790_" style="fill:#3C3B42;" d="M244.999,280h-30c-2.761,0-5-2.239-5-5l0,0c0-2.761,2.239-5,5-5h30
			c2.761,0,5,2.239,5,5l0,0C249.998,277.761,247.76,280,244.999,280z"/>
		<path id="XMLID_1765_" style="fill:#3C3B42;" d="M244.999,260h-30c-2.761,0-5-2.239-5-5l0,0c0-2.761,2.239-5,5-5h30
			c2.761,0,5,2.239,5,5l0,0C249.998,257.762,247.76,260,244.999,260z"/>
		<path id="XMLID_1763_" style="fill:#3C3B42;" d="M244.999,319.999h-30c-2.761,0-5-2.239-5-5l0,0c0-2.761,2.239-5,5-5h30
			c2.761,0,5,2.239,5,5l0,0C249.998,317.76,247.76,319.999,244.999,319.999z"/>
	</g>
	<g id="Black_drip">
		<path id="XMLID_1761_" style="fill:#3C3B42;" d="M249.998,70.005v19.999c0,5.523-4.477,10-10,10s-10-4.477-10-10V70.005h-20
			l8.586-60.099c0.812-5.68,5.676-9.899,11.414-9.899s10.603,4.219,11.414,9.899L249.998,70.005z"/>
		<path id="XMLID_1759_" style="fill:#515056;" d="M239.998,70.005v15c0,2.761-2.239,5-5,5s-5-2.239-5-5v-15h-10l3.207-24.052
			c0.454-3.405,3.358-5.947,6.793-5.947s6.339,2.543,6.793,5.947L239.998,70.005z"/>
	</g>
	<g id="Blue_label">
		<path id="XMLID_1823_" style="fill:#7FA3BA;" d="M309.998,196.078h130v124.78h-130V196.078z"/>
		<path id="XMLID_1820_" style="fill:#475E70;" d="M309.998,196.078h25v124.78h-25V196.078z"/>
		<path id="XMLID_1818_" style="fill:#65849B;" d="M439.998,196.078h-35v124.78h35V196.078z"/>
		<path id="XMLID_1808_" style="fill:#65849B;" d="M352.498,263.319v-0.788c0-2.244,1.819-4.063,4.063-4.063h26.875
			c2.244,0,4.063,1.819,4.063,4.063v0.788c0,2.244-1.819,4.063-4.063,4.063h-26.875
			C354.317,267.381,352.498,265.562,352.498,263.319z"/>
		<path id="XMLID_1806_" style="fill:#65849B;" d="M352.498,245.493v-0.788c0-2.244,1.819-4.063,4.063-4.063h26.875
			c2.244,0,4.063,1.819,4.063,4.063v0.788c0,2.244-1.819,4.062-4.063,4.062h-26.875
			C354.317,249.555,352.498,247.737,352.498,245.493z"/>
		<path id="XMLID_1797_" style="fill:#65849B;" d="M352.498,227.667v-0.788c0-2.244,1.819-4.063,4.063-4.063h26.875
			c2.244,0,4.063,1.819,4.063,4.063v0.788c0,2.244-1.819,4.062-4.063,4.062h-26.875C354.317,231.73,352.498,229.911,352.498,227.667
			z"/>
		<path id="XMLID_1795_" style="fill:#65849B;" d="M352.498,281.144v-0.788c0-2.244,1.819-4.063,4.063-4.063h26.875
			c2.244,0,4.063,1.819,4.063,4.063v0.788c0,2.244-1.819,4.063-4.063,4.063h-26.875
			C354.317,285.207,352.498,283.388,352.498,281.144z"/>
	</g>
	<g id="Blue_drip">
		<path id="XMLID_1737_" style="fill:#65849B;" d="M387.303,63.001v18.796c0,4.531-3.638,8.204-8.125,8.204h-1.25
			c-4.487,0-8.125-3.673-8.125-8.204V63.001v-2.808h-17.11l7.123-51.283c0.71-5.112,4.967-8.91,9.987-8.91s9.277,3.797,9.987,8.91
			L387.303,63.001z"/>
		<path id="XMLID_1735_" style="fill:#7FA3BA;" d="M378.553,60.193v13.763c0,2.244-1.819,4.063-4.063,4.063h-0.625
			c-2.244,0-4.063-1.819-4.063-4.063V60.193h-8.75l2.806-21.438c0.397-3.035,2.938-5.301,5.944-5.301s5.547,2.266,5.944,5.301
			L378.553,60.193z"/>
	</g>
	<g id="Yellow_label">
		<path id="XMLID_1829_" style="fill:#F7C843;" d="M149.998,320.858h-130v-124.78h130V320.858z"/>
		<path id="XMLID_1827_" style="fill:#B7830F;" d="M149.998,320.858h-25v-124.78h25V320.858z"/>
		<path id="XMLID_1825_" style="fill:#E0AF34;" d="M19.998,320.858h35v-124.78h-35C19.998,196.078,19.998,320.858,19.998,320.858z"
			/>
		<path id="XMLID_1816_" style="fill:#E0AF34;" d="M103.436,267.381H76.561c-2.244,0-4.062-1.819-4.062-4.063v-0.788
			c0-2.244,1.819-4.063,4.062-4.063h26.875c2.244,0,4.063,1.819,4.063,4.063v0.788C107.498,265.562,105.68,267.381,103.436,267.381z
			"/>
		<path id="XMLID_1814_" style="fill:#E0AF34;" d="M103.436,249.555H76.561c-2.244,0-4.062-1.819-4.062-4.062v-0.788
			c0-2.244,1.819-4.063,4.062-4.063h26.875c2.244,0,4.063,1.819,4.063,4.063v0.788C107.498,247.737,105.68,249.555,103.436,249.555z
			"/>
		<path id="XMLID_1812_" style="fill:#E0AF34;" d="M103.436,231.73H76.561c-2.244,0-4.062-1.819-4.062-4.062v-0.788
			c0-2.244,1.819-4.063,4.062-4.063h26.875c2.244,0,4.063,1.819,4.063,4.063v0.788C107.498,229.911,105.68,231.73,103.436,231.73z"
			/>
		<path id="XMLID_1810_" style="fill:#E0AF34;" d="M103.436,285.207H76.561c-2.244,0-4.062-1.819-4.062-4.063v-0.788
			c0-2.244,1.819-4.063,4.062-4.063h26.875c2.244,0,4.063,1.819,4.063,4.063v0.788C107.498,283.388,105.68,285.207,103.436,285.207z
			"/>
	</g>
	<g id="Yellow_drip">
		<path id="XMLID_1757_" style="fill:#E0AF34;" d="M107.303,63.001v18.796c0,4.531-3.638,8.204-8.125,8.204h-1.25
			c-4.487,0-8.125-3.673-8.125-8.204V63.001v-2.808h-17.11l7.123-51.282c0.71-5.113,4.967-8.91,9.987-8.91s9.277,3.797,9.987,8.91
			L107.303,63.001z"/>
		<path id="XMLID_1753_" style="fill:#F7C843;" d="M98.553,60.193v13.763c0,2.244-1.819,4.063-4.063,4.063h-0.625
			c-2.244,0-4.063-1.819-4.063-4.063V60.193h-8.75l2.806-21.438c0.397-3.035,2.938-5.301,5.944-5.301s5.547,2.266,5.944,5.301
			L98.553,60.193z"/>
	</g>
</g>
<g>
</g>
<g>
</g>
<g>
</g>
<g>
</g>
<g>
</g>
<g>
</g>
<g>
</g>
<g>
</g>
<g>
</g>
<g>
</g>
<g>
</g>
<g>
</g>
<g>
</g>
<g>
</g>
<g>
</g>
</svg>
