<?xml version="1.0" encoding="iso-8859-1"?>
<!-- Generator: Adobe Illustrator 19.0.0, SVG Export Plug-In . SVG Version: 6.00 Build 0)  -->
<svg version="1.1" id="Layer_1" xmlns="http://www.w3.org/2000/svg" xmlns:xlink="http://www.w3.org/1999/xlink" x="0px" y="0px"
	 viewBox="0 0 512 512" style="enable-background:new 0 0 512 512;" xml:space="preserve">
<g>
	<rect x="28.514" y="366.727" style="fill:#3F993A;" width="72.76" height="45.011"/>
	<rect x="410.725" y="366.727" style="fill:#3F993A;" width="72.749" height="45.011"/>
</g>
<path style="fill:#566955;" d="M494.727,100.262H17.262C7.731,100.262,0,107.993,0,117.535v243.183
	c0,9.531,7.731,17.262,17.262,17.262h477.465c9.531,0,17.273-7.731,17.273-17.262V117.535
	C512,107.993,504.258,100.262,494.727,100.262z"/>
<rect x="168.791" y="173.63" style="fill:#FDF3C2;" width="174.418" height="101.275"/>
<g>
	<path style="fill:#FEC76B;" d="M50.637,241.146c9.317,0,16.879,7.551,16.879,16.879c0,9.317-7.562,16.879-16.879,16.879
		c-9.329,0-16.879-7.562-16.879-16.879C33.758,248.697,41.309,241.146,50.637,241.146z"/>
	<path style="fill:#FEC76B;" d="M50.637,173.63c9.317,0,16.879,7.551,16.879,16.879c0,9.317-7.562,16.879-16.879,16.879
		c-9.329,0-16.879-7.562-16.879-16.879C33.758,181.18,41.309,173.63,50.637,173.63z"/>
</g>
<path style="fill:#3F993A;" d="M427.604,224.267c-27.974,0-50.637,22.663-50.637,50.637c0,25.086,18.243,45.902,42.193,49.923
	l16.879,0.001c23.947-4.018,42.202-24.836,42.202-49.924C478.242,246.93,455.568,224.267,427.604,224.267z"/>
<g>
	<path style="fill:#62B3B1;" d="M132.631,266.462h-31.36c-4.662,0-8.44-3.779-8.44-8.44c0-4.661,3.778-8.44,8.44-8.44h31.36
		c4.662,0,8.44,3.779,8.44,8.44C141.07,262.683,137.291,266.462,132.631,266.462z"/>
	<path style="fill:#62B3B1;" d="M132.631,198.945h-31.36c-4.662,0-8.44-3.779-8.44-8.44s3.778-8.44,8.44-8.44h31.36
		c4.662,0,8.44,3.779,8.44,8.44S137.291,198.945,132.631,198.945z"/>
	<path style="fill:#62B3B1;" d="M427.6,288.967c-4.662,0-8.44,3.779-8.44,8.44v27.422c2.748,0.461,5.566,0.715,8.444,0.715
		c2.875,0,5.691-0.252,8.435-0.712v-27.423C436.039,292.745,432.261,288.967,427.6,288.967z"/>
</g>
<g>
</g>
<g>
</g>
<g>
</g>
<g>
</g>
<g>
</g>
<g>
</g>
<g>
</g>
<g>
</g>
<g>
</g>
<g>
</g>
<g>
</g>
<g>
</g>
<g>
</g>
<g>
</g>
<g>
</g>
</svg>
