<?xml version="1.0" encoding="iso-8859-1"?>
<!-- Generator: Adobe Illustrator 19.0.0, SVG Export Plug-In . SVG Version: 6.00 Build 0)  -->
<svg version="1.1" id="Layer_1" xmlns="http://www.w3.org/2000/svg" xmlns:xlink="http://www.w3.org/1999/xlink" x="0px" y="0px"
	 viewBox="0 0 512 512" style="enable-background:new 0 0 512 512;" xml:space="preserve">
<rect y="167.308" style="fill:#415E72;" width="512" height="230.664"/>
<g>
	<rect x="36" y="201.284" style="fill:#515151;" width="33.392" height="26.8"/>
	<rect x="81.176" y="201.284" style="fill:#515151;" width="33.392" height="26.8"/>
	<rect x="126.36" y="201.284" style="fill:#515151;" width="33.392" height="26.8"/>
	<rect x="171.536" y="201.284" style="fill:#515151;" width="33.392" height="26.8"/>
	<rect x="216.72" y="201.284" style="fill:#515151;" width="33.392" height="26.8"/>
	<rect x="261.896" y="201.284" style="fill:#515151;" width="33.392" height="26.8"/>
	<rect x="307.04" y="201.284" style="fill:#515151;" width="33.392" height="26.8"/>
	<rect x="352.24" y="201.284" style="fill:#515151;" width="33.392" height="26.8"/>
	<rect x="397.432" y="201.284" style="fill:#515151;" width="33.392" height="26.8"/>
	<rect x="442.64" y="201.284" style="fill:#515151;" width="33.392" height="26.8"/>
	<rect x="36" y="236.268" style="fill:#515151;" width="33.392" height="26.8"/>
	<rect x="81.176" y="236.268" style="fill:#515151;" width="33.392" height="26.8"/>
	<rect x="126.36" y="236.268" style="fill:#515151;" width="33.392" height="26.8"/>
	<rect x="171.536" y="236.268" style="fill:#515151;" width="33.392" height="26.8"/>
	<rect x="216.72" y="236.268" style="fill:#515151;" width="33.392" height="26.8"/>
	<rect x="261.896" y="236.268" style="fill:#515151;" width="33.392" height="26.8"/>
	<rect x="307.04" y="236.268" style="fill:#515151;" width="33.392" height="26.8"/>
	<rect x="352.24" y="236.268" style="fill:#515151;" width="33.392" height="26.8"/>
	<rect x="397.432" y="236.268" style="fill:#515151;" width="33.392" height="26.8"/>
	<rect x="442.64" y="236.268" style="fill:#515151;" width="33.392" height="26.8"/>
	<rect x="36" y="271.268" style="fill:#515151;" width="33.392" height="26.8"/>
	<rect x="81.176" y="271.268" style="fill:#515151;" width="33.392" height="26.8"/>
	<rect x="126.36" y="271.268" style="fill:#515151;" width="33.392" height="26.8"/>
	<rect x="171.536" y="271.268" style="fill:#515151;" width="33.392" height="26.8"/>
	<rect x="216.72" y="271.268" style="fill:#515151;" width="33.392" height="26.8"/>
	<rect x="261.896" y="271.268" style="fill:#515151;" width="33.392" height="26.8"/>
	<rect x="307.04" y="271.268" style="fill:#515151;" width="33.392" height="26.8"/>
	<rect x="352.24" y="271.268" style="fill:#515151;" width="33.392" height="26.8"/>
	<rect x="397.432" y="271.268" style="fill:#515151;" width="33.392" height="26.8"/>
	<rect x="442.64" y="271.268" style="fill:#515151;" width="33.392" height="26.8"/>
	<rect x="103.784" y="306.244" style="fill:#515151;" width="33.392" height="26.8"/>
	<rect x="148.96" y="306.244" style="fill:#515151;" width="33.392" height="26.8"/>
	<rect x="194.144" y="306.244" style="fill:#515151;" width="33.392" height="26.8"/>
	<rect x="239.32" y="306.244" style="fill:#515151;" width="33.392" height="26.8"/>
	<rect x="284.496" y="306.244" style="fill:#515151;" width="33.392" height="26.8"/>
	<rect x="329.68" y="306.244" style="fill:#515151;" width="33.392" height="26.8"/>
	<rect x="374.856" y="306.244" style="fill:#515151;" width="33.392" height="26.8"/>
	<rect x="36" y="306.244" style="fill:#515151;" width="56" height="26.8"/>
	<rect x="420" y="306.244" style="fill:#515151;" width="56" height="26.8"/>
	<rect x="36" y="341.26" style="fill:#515151;" width="33.392" height="26.8"/>
	<rect x="81.176" y="341.26" style="fill:#515151;" width="33.392" height="26.8"/>
	<rect x="126.36" y="341.26" style="fill:#515151;" width="33.392" height="26.8"/>
	<rect x="171.536" y="341.26" style="fill:#515151;" width="168.96" height="26.8"/>
	<rect x="352.24" y="341.26" style="fill:#515151;" width="33.392" height="26.8"/>
	<rect x="397.432" y="341.26" style="fill:#515151;" width="33.392" height="26.8"/>
	<rect x="442.64" y="341.26" style="fill:#515151;" width="33.392" height="26.8"/>
</g>
<g>
	<rect x="36" y="197.22" style="fill:#FFFFFF;" width="33.392" height="26.8"/>
	<rect x="81.176" y="197.22" style="fill:#FFFFFF;" width="33.392" height="26.8"/>
	<rect x="126.36" y="197.22" style="fill:#FFFFFF;" width="33.392" height="26.8"/>
	<rect x="171.536" y="197.22" style="fill:#FFFFFF;" width="33.392" height="26.8"/>
	<rect x="216.72" y="197.22" style="fill:#FFFFFF;" width="33.392" height="26.8"/>
	<rect x="261.896" y="197.22" style="fill:#FFFFFF;" width="33.392" height="26.8"/>
	<rect x="307.04" y="197.22" style="fill:#FFFFFF;" width="33.392" height="26.8"/>
	<rect x="352.24" y="197.22" style="fill:#FFFFFF;" width="33.392" height="26.8"/>
	<rect x="397.432" y="197.22" style="fill:#FFFFFF;" width="33.392" height="26.8"/>
	<rect x="442.64" y="197.22" style="fill:#FFFFFF;" width="33.392" height="26.8"/>
	<rect x="36" y="232.244" style="fill:#FFFFFF;" width="33.392" height="26.8"/>
	<rect x="81.176" y="232.244" style="fill:#FFFFFF;" width="33.392" height="26.8"/>
	<rect x="126.36" y="232.244" style="fill:#FFFFFF;" width="33.392" height="26.8"/>
	<rect x="171.536" y="232.244" style="fill:#FFFFFF;" width="33.392" height="26.8"/>
	<rect x="216.72" y="232.244" style="fill:#FFFFFF;" width="33.392" height="26.8"/>
	<rect x="261.896" y="232.244" style="fill:#FFFFFF;" width="33.392" height="26.8"/>
	<rect x="307.04" y="232.244" style="fill:#FFFFFF;" width="33.392" height="26.8"/>
	<rect x="352.24" y="232.244" style="fill:#FFFFFF;" width="33.392" height="26.8"/>
	<rect x="397.432" y="232.244" style="fill:#FFFFFF;" width="33.392" height="26.8"/>
	<rect x="442.64" y="232.244" style="fill:#FFFFFF;" width="33.392" height="26.8"/>
	<rect x="36" y="267.22" style="fill:#FFFFFF;" width="33.392" height="26.8"/>
	<rect x="81.176" y="267.22" style="fill:#FFFFFF;" width="33.392" height="26.8"/>
	<rect x="126.36" y="267.22" style="fill:#FFFFFF;" width="33.392" height="26.8"/>
	<rect x="171.536" y="267.22" style="fill:#FFFFFF;" width="33.392" height="26.8"/>
	<rect x="216.72" y="267.22" style="fill:#FFFFFF;" width="33.392" height="26.8"/>
	<rect x="261.896" y="267.22" style="fill:#FFFFFF;" width="33.392" height="26.8"/>
	<rect x="307.04" y="267.22" style="fill:#FFFFFF;" width="33.392" height="26.8"/>
	<rect x="352.24" y="267.22" style="fill:#FFFFFF;" width="33.392" height="26.8"/>
	<rect x="397.432" y="267.22" style="fill:#FFFFFF;" width="33.392" height="26.8"/>
	<rect x="442.64" y="267.22" style="fill:#FFFFFF;" width="33.392" height="26.8"/>
	<rect x="103.784" y="302.212" style="fill:#FFFFFF;" width="33.392" height="26.8"/>
	<rect x="148.96" y="302.212" style="fill:#FFFFFF;" width="33.392" height="26.8"/>
	<rect x="194.144" y="302.212" style="fill:#FFFFFF;" width="33.392" height="26.8"/>
	<rect x="239.32" y="302.212" style="fill:#FFFFFF;" width="33.392" height="26.8"/>
	<rect x="284.496" y="302.212" style="fill:#FFFFFF;" width="33.392" height="26.8"/>
	<rect x="329.68" y="302.212" style="fill:#FFFFFF;" width="33.392" height="26.8"/>
	<rect x="374.856" y="302.212" style="fill:#FFFFFF;" width="33.392" height="26.8"/>
	<rect x="36" y="302.212" style="fill:#FFFFFF;" width="56" height="26.8"/>
	<rect x="420" y="302.212" style="fill:#FFFFFF;" width="56" height="26.8"/>
	<rect x="36" y="337.204" style="fill:#FFFFFF;" width="33.392" height="26.8"/>
	<rect x="81.176" y="337.204" style="fill:#FFFFFF;" width="33.392" height="26.8"/>
	<rect x="126.36" y="337.204" style="fill:#FFFFFF;" width="33.392" height="26.8"/>
	<rect x="171.536" y="337.204" style="fill:#FFFFFF;" width="168.96" height="26.8"/>
	<rect x="352.24" y="337.204" style="fill:#FFFFFF;" width="33.392" height="26.8"/>
	<rect x="397.432" y="337.204" style="fill:#FFFFFF;" width="33.392" height="26.8"/>
	<rect x="442.64" y="337.204" style="fill:#FFFFFF;" width="33.392" height="26.8"/>
</g>
<rect y="397.964" style="fill:#E04F5F;" width="512" height="19.336"/>
<rect x="252" y="94.7" style="fill:#AAC1CE;" width="8" height="72.56"/>
<g>
</g>
<g>
</g>
<g>
</g>
<g>
</g>
<g>
</g>
<g>
</g>
<g>
</g>
<g>
</g>
<g>
</g>
<g>
</g>
<g>
</g>
<g>
</g>
<g>
</g>
<g>
</g>
<g>
</g>
</svg>
